<?xml version="1.0" encoding="utf-8"?>
<!-- Generator: Adobe Illustrator 21.1.0, SVG Export Plug-In . SVG Version: 6.00 Build 0)  -->
<svg version="1.1" id="圖層_1" xmlns="http://www.w3.org/2000/svg" xmlns:xlink="http://www.w3.org/1999/xlink" x="0px" y="0px"
	 viewBox="0 0 12.7 13.3" style="enable-background:new 0 0 12.7 13.3;" xml:space="preserve">
<path d="M12.3,7.1c-0.1,0.1-0.3,0.2-0.4,0.2l-11.1,0C0.4,7.3,0.1,7,0.1,6.7C0.1,6.3,0.4,6,0.8,6l11.1,0c0.4,0,0.6,0.3,0.6,0.6
	C12.5,6.8,12.5,7,12.3,7.1z"/>
<path d="M6.8,12.7c-0.1,0.1-0.3,0.2-0.4,0.2c-0.4,0-0.6-0.3-0.6-0.6V1.1c0-0.4,0.3-0.6,0.6-0.6C6.7,0.5,7,0.8,7,1.1v11.1
	C7,12.4,6.9,12.6,6.8,12.7z"/>
</svg>
