<?xml version="1.0" encoding="utf-8"?>
<!-- Generator: Adobe Illustrator 21.1.0, SVG Export Plug-In . SVG Version: 6.00 Build 0)  -->
<svg version="1.1" id="圖層_1" xmlns="http://www.w3.org/2000/svg" xmlns:xlink="http://www.w3.org/1999/xlink" x="0px" y="0px"
	 viewBox="0 0 12.7 13.3" style="enable-background:new 0 0 12.7 13.3;" xml:space="preserve">
<path d="M11.4,12.5c-0.2,0-0.4-0.1-0.6-0.2L0.7,2.2C0.4,1.9,0.4,1.3,0.7,1C1,0.7,1.5,0.7,1.9,1L12,11.1c0.3,0.3,0.3,0.8,0,1.2
	C11.8,12.5,11.6,12.5,11.4,12.5z"/>
<path d="M1.3,12.5c-0.2,0-0.4-0.1-0.6-0.2c-0.3-0.3-0.3-0.8,0-1.2L10.8,1c0.3-0.3,0.8-0.3,1.2,0c0.3,0.3,0.3,0.8,0,1.2L1.9,12.3
	C1.7,12.5,1.5,12.5,1.3,12.5z"/>
</svg>
