<svg xmlns="http://www.w3.org/2000/svg" xml:space="preserve" id="artwork" x="0" y="0" version="1.1" viewBox="0 0 155 60"><style>.st0{fill:#fff}</style><g transform="scale(4.00216 4.0011)"><path d="M38.2 11.8c0 .6-.5 1.1-1.1 1.1H1.6c-.6 0-1.1-.5-1.1-1.1V3.2c0-.6.5-1.1 1.1-1.1h35.5c.6 0 1.1.5 1.1 1.1z" class="st0"/><path d="M37 13.2H1.6c-.8 0-1.4-.6-1.4-1.4V3.2c0-.8.6-1.4 1.4-1.4h35.5c.8 0 1.4.6 1.4 1.4v8.6c-.1.8-.7 1.4-1.5 1.4" style="fill:#a6a6a6"/><path d="M38.2 11.8c0 .6-.5 1.1-1.1 1.1H1.6c-.6 0-1.1-.5-1.1-1.1V3.2c0-.6.5-1.1 1.1-1.1h35.5c.6 0 1.1.5 1.1 1.1z"/><path d="M8.7 7.4c0-.9.8-1.4.8-1.4-.4-.7-1.1-.7-1.3-.7-.6-.1-1.2.4-1.4.4-.3 0-.7-.3-1.2-.3s-1.2.3-1.5.9C3.5 7.4 4 9 4.6 9.9c.3.5.7.9 1.1.9.5 0 .7-.3 1.1-.3.6 0 .7.3 1.2.2.5 0 .8-.5 1.1-.9.3-.5.5-1 .5-1 .1.1-.9-.3-.9-1.4m-.9-2.6c.2-.4.5-.7.4-1.2-.3 0-.8.2-1 .5-.3.2-.5.7-.4 1.1.3.1.8-.2 1-.4" class="st0"/><linearGradient id="SVGID_1_" x1="-95.234" x2="-95.234" y1="94.981" y2="84.781" gradientTransform="matrix(64.1042 0 0 64.0528 6133.128 -6070.587)" gradientUnits="userSpaceOnUse"><stop offset="0" style="stop-color:#1a1a1a;stop-opacity:.1"/><stop offset=".123" style="stop-color:#212121;stop-opacity:.151"/><stop offset=".308" style="stop-color:#353535;stop-opacity:.227"/><stop offset=".532" style="stop-color:#575757;stop-opacity:.318"/><stop offset=".783" style="stop-color:#858585;stop-opacity:.421"/><stop offset="1" style="stop-color:#b3b3b3;stop-opacity:.51"/></linearGradient><path d="M37 1.8H18l7.5 11.3H37c.8 0 1.4-.6 1.4-1.4V3.2c0-.8-.6-1.4-1.4-1.4" style="fill:url(#SVGID_1_)"/><path d="M14.5 9.8H13l-.3 1.1h-.6L13.5 7h.6l1.4 3.8h-.6zm-1.3-.5h1.2l-.6-1.7zM18.5 9.4c0 .9-.5 1.4-1.2 1.4-.4 0-.7-.2-.9-.5v1.4h-.6V8h.6v.5c.2-.3.6-.5.9-.5.7 0 1.2.6 1.2 1.4m-.6 0c0-.6-.3-.9-.7-.9s-.7.4-.7.9.3.9.7.9c.4.1.7-.3.7-.9M21.6 9.4c0 .9-.5 1.4-1.2 1.4-.4 0-.7-.2-.9-.5v1.4h-.6V8h.6v.5c.2-.3.5-.5.9-.5.7 0 1.2.6 1.2 1.4m-.6 0c0-.6-.3-.9-.7-.9s-.7.4-.7.9.3.9.7.9c.4.1.7-.3.7-.9M23.6 9.8c0 .4.4.6.9.6s.8-.2.8-.6c0-.3-.2-.5-.7-.6l-.5-.1c-.7-.2-1-.5-1-1 0-.6.6-1.1 1.4-1.1s1.4.5 1.4 1.1h-.6c0-.4-.3-.6-.8-.6s-.8.2-.8.6c0 .3.2.4.7.6l.4.1c.9.1 1.2.4 1.2.9 0 .7-.6 1.2-1.5 1.2s-1.4-.4-1.5-1.1zM27.2 7.4V8h.5v.5h-.5V10q0 .3.3.3h.2v.5h-.3c-.6 0-.8-.2-.8-.7V8.5h-.4V8h.4v-.6zM28.1 9.4c0-.9.5-1.4 1.3-1.4s1.3.6 1.3 1.4c0 .9-.5 1.4-1.3 1.4-.9.1-1.3-.5-1.3-1.4m2 0c0-.6-.3-1-.7-1-.5 0-.7.4-.7 1s.3 1 .7 1 .7-.3.7-1M31.2 8h.6v.5c0-.3.3-.5.6-.5h.2v.5h-.2c-.3 0-.6.2-.6.6v1.8h-.6zM35.2 10c-.1.5-.6.9-1.2.9-.8 0-1.3-.6-1.3-1.4S33.2 8 34 8s1.3.5 1.3 1.4v.2h-2c0 .4.2.7.6.8h.1c.3 0 .6-.1.6-.4zm-1.9-.8h1.4c0-.4-.3-.7-.6-.7H34c-.4 0-.7.3-.7.7" class="st0"/><g id="_Group_4"><path d="M13.2 3.8c.5 0 .9.3.9.8v.2c0 .6-.3 1-.9 1h-.7v-2zm-.4 1.6h.3c.3 0 .6-.2.6-.6v-.1c0-.3-.2-.6-.5-.7h-.4zM14.5 5c0-.4.2-.7.6-.7s.7.2.7.6V5c0 .4-.2.7-.6.7s-.7-.2-.7-.6zm1 0c0-.3-.1-.5-.4-.5s-.3.2-.3.5.1.5.4.5c.2 0 .3-.2.3-.5M17.6 5.7h-.3l-.3-1-.3 1h-.3L16 4.3h.3l.3 1.1.3-1.1h.3l.3 1.1.3-1.1h.3zM18.3 4.2h.3v.3c.1-.2.3-.3.4-.3.3 0 .5.2.5.4v1h-.3v-.8q0-.3-.3-.3t-.3.3v.9h-.3zM20 3.7h.3v2H20zM20.7 5c0-.4.2-.7.6-.7s.7.2.7.6V5c0 .4-.2.7-.6.7s-.7-.2-.7-.6zm1 0c0-.3-.1-.5-.4-.5-.2 0-.3.2-.3.5s.1.5.4.5c.2 0 .3-.2.3-.5M22.3 5.3c0-.3.2-.4.5-.4h.4v-.2c0-.2-.1-.2-.3-.2s-.3.1-.3.2h-.3c0-.3.3-.4.6-.4s.6.2.6.5v1h-.3v-.3c-.1.2-.3.2-.4.2-.3.1-.5-.1-.5-.4m.9-.1V5h-.3c-.2 0-.3.1-.3.2s.1.2.3.2c.2.1.3 0 .3-.2M23.9 5c0-.4.2-.7.6-.7.2 0 .3.1.4.3v-.9h.3v2H25v-.2c-.1.2-.3.3-.4.3-.5-.1-.7-.4-.7-.8m.3 0c0 .3.2.5.4.5s.4-.2.4-.5-.2-.5-.4-.5c-.3 0-.4.2-.4.5M26.4 5c0-.4.2-.7.6-.7s.7.2.7.6V5c0 .4-.2.7-.6.7s-.7-.2-.7-.6zm1.1 0c0-.3-.1-.5-.4-.5s-.4.2-.4.5.1.5.4.5c.2 0 .4-.2.4-.5M28.1 4.2h.3v.3c.1-.2.3-.3.4-.3.3 0 .5.2.5.4v1H29v-.8q0-.3-.3-.3t-.3.3v.9h-.3zM30.9 3.9v.3h.3v.3h-.3v.7c0 .2.1.2.2.2h.1v.2H31c-.3 0-.4-.1-.4-.4v-.7h-.2v-.2h.2v-.4zM31.6 3.7h.3v.8c.1-.2.3-.3.4-.3.3 0 .5.2.5.4v1h-.3v-.8q0-.3-.3-.3t-.3.3v.9h-.3zM34.5 5.3c-.1.3-.3.4-.6.4s-.7-.3-.7-.6V5c-.1-.3.2-.7.6-.7h.1c.4 0 .6.3.6.7v.1h-1c0 .2.1.4.3.4.1 0 .3-.1.3-.2zm-1-.5h.7c0-.2-.1-.3-.3-.4-.2.1-.4.2-.4.4" class="st0"/></g></g></svg>