<?xml version="1.0" encoding="utf-8"?>
<!-- Generator: Adobe Illustrator 21.1.0, SVG Export Plug-In . SVG Version: 6.00 Build 0)  -->
<svg version="1.1" id="圖層_1" xmlns="http://www.w3.org/2000/svg" xmlns:xlink="http://www.w3.org/1999/xlink" x="0px" y="0px"
	 viewBox="0 0 170.5 101" style="enable-background:new 0 0 170.5 101;" xml:space="preserve">
<g id="XMLID_3397_">
	<g id="XMLID_3608_">
		<circle id="XMLID_3716_" cx="157.6" cy="11.7" r="10.9"/>
		<circle id="XMLID_3816_" cx="157.2" cy="12.1" r="10.9"/>
		<circle id="XMLID_3815_" cx="156.9" cy="12.4" r="10.9"/>
		<circle id="XMLID_3814_" cx="156.5" cy="12.8" r="10.9"/>
		<circle id="XMLID_3813_" cx="156.1" cy="13.1" r="10.9"/>
		<circle id="XMLID_3812_" cx="155.7" cy="13.5" r="10.9"/>
		<circle id="XMLID_3811_" cx="155.4" cy="13.8" r="10.9"/>
		<circle id="XMLID_3810_" cx="155" cy="14.2" r="10.9"/>
		<circle id="XMLID_3809_" cx="154.6" cy="14.6" r="10.9"/>
		<circle id="XMLID_3808_" cx="154.2" cy="14.9" r="10.9"/>
		<circle id="XMLID_3807_" cx="153.9" cy="15.3" r="10.9"/>
		<circle id="XMLID_3806_" cx="153.5" cy="15.6" r="10.9"/>
		<circle id="XMLID_3805_" cx="153.1" cy="16" r="10.9"/>
		<circle id="XMLID_3804_" cx="152.7" cy="16.4" r="10.9"/>
		<circle id="XMLID_3803_" cx="152.4" cy="16.7" r="10.9"/>
		<circle id="XMLID_3802_" cx="152" cy="17.1" r="10.9"/>
		<circle id="XMLID_3801_" cx="151.6" cy="17.4" r="10.9"/>
		<circle id="XMLID_3800_" cx="151.2" cy="17.8" r="10.9"/>
		<circle id="XMLID_3799_" cx="150.8" cy="18.2" r="10.9"/>
		<circle id="XMLID_3798_" cx="150.5" cy="18.5" r="10.9"/>
		<circle id="XMLID_3797_" cx="150.1" cy="18.9" r="10.9"/>
		<circle id="XMLID_3796_" cx="149.7" cy="19.2" r="10.9"/>
		<circle id="XMLID_3795_" cx="149.3" cy="19.6" r="10.9"/>
		<circle id="XMLID_3794_" cx="149" cy="19.9" r="10.9"/>
		<circle id="XMLID_3793_" cx="148.6" cy="20.3" r="10.9"/>
		<circle id="XMLID_3792_" cx="148.2" cy="20.7" r="10.9"/>
		<circle id="XMLID_3791_" cx="147.8" cy="21" r="10.9"/>
		<circle id="XMLID_3790_" cx="147.5" cy="21.4" r="10.9"/>
		<circle id="XMLID_3789_" cx="147.1" cy="21.7" r="10.9"/>
		<circle id="XMLID_3788_" cx="146.7" cy="22.1" r="10.9"/>
		<circle id="XMLID_3787_" cx="146.3" cy="22.5" r="10.9"/>
		<circle id="XMLID_3786_" cx="146" cy="22.8" r="10.9"/>
		<circle id="XMLID_3785_" cx="145.6" cy="23.2" r="10.9"/>
		<circle id="XMLID_3784_" cx="145.2" cy="23.5" r="10.9"/>
		<circle id="XMLID_3783_" cx="144.8" cy="23.9" r="10.9"/>
		<circle id="XMLID_3782_" cx="144.4" cy="24.3" r="10.9"/>
		<circle id="XMLID_3781_" cx="144.1" cy="24.6" r="10.9"/>
		<circle id="XMLID_3780_" cx="143.7" cy="25" r="10.9"/>
		<circle id="XMLID_3779_" cx="143.3" cy="25.3" r="10.9"/>
		<circle id="XMLID_3778_" cx="142.9" cy="25.7" r="10.9"/>
		<circle id="XMLID_3777_" cx="142.6" cy="26" r="10.9"/>
		<circle id="XMLID_3776_" cx="142.2" cy="26.4" r="10.9"/>
		<circle id="XMLID_3775_" cx="141.8" cy="26.8" r="10.9"/>
		<circle id="XMLID_3774_" cx="141.4" cy="27.1" r="10.9"/>
		<circle id="XMLID_3773_" cx="141.1" cy="27.5" r="10.9"/>
		<circle id="XMLID_3772_" cx="140.7" cy="27.8" r="10.9"/>
		<circle id="XMLID_3771_" cx="140.3" cy="28.2" r="10.9"/>
		<circle id="XMLID_3770_" cx="139.9" cy="28.6" r="10.9"/>
		<circle id="XMLID_3769_" cx="139.6" cy="28.9" r="10.9"/>
		<circle id="XMLID_3768_" cx="139.2" cy="29.3" r="10.9"/>
		<circle id="XMLID_3767_" cx="138.8" cy="29.6" r="10.9"/>
		<circle id="XMLID_3766_" cx="138.4" cy="30" r="10.9"/>
		<circle id="XMLID_3765_" cx="138.1" cy="30.4" r="10.9"/>
		<circle id="XMLID_3764_" cx="137.7" cy="30.7" r="10.9"/>
		<circle id="XMLID_3763_" cx="137.3" cy="31.1" r="10.9"/>
		<circle id="XMLID_3762_" cx="136.9" cy="31.4" r="10.9"/>
		<circle id="XMLID_3761_" cx="136.5" cy="31.8" r="10.9"/>
		<circle id="XMLID_3760_" cx="136.2" cy="32.1" r="10.9"/>
		<circle id="XMLID_3759_" cx="135.8" cy="32.5" r="10.9"/>
		<circle id="XMLID_3758_" cx="135.4" cy="32.9" r="10.9"/>
		<circle id="XMLID_3757_" cx="135" cy="33.2" r="10.9"/>
		<circle id="XMLID_3756_" cx="134.7" cy="33.6" r="10.9"/>
		<circle id="XMLID_3755_" cx="134.3" cy="33.9" r="10.9"/>
		<circle id="XMLID_3754_" cx="133.9" cy="34.3" r="10.9"/>
		<circle id="XMLID_3753_" cx="133.5" cy="34.7" r="10.9"/>
		<circle id="XMLID_3752_" cx="133.2" cy="35" r="10.9"/>
		<circle id="XMLID_3751_" cx="132.8" cy="35.4" r="10.9"/>
		<circle id="XMLID_3750_" cx="132.4" cy="35.7" r="10.9"/>
		<circle id="XMLID_3749_" cx="132" cy="36.1" r="10.9"/>
		<circle id="XMLID_3748_" cx="131.7" cy="36.5" r="10.9"/>
		<circle id="XMLID_3747_" cx="131.3" cy="36.8" r="10.9"/>
		<circle id="XMLID_3746_" cx="130.9" cy="37.2" r="10.9"/>
		<circle id="XMLID_3745_" cx="130.5" cy="37.5" r="10.9"/>
		<circle id="XMLID_3744_" cx="130.2" cy="37.9" r="10.9"/>
		<circle id="XMLID_3743_" cx="129.8" cy="38.3" r="10.9"/>
		<circle id="XMLID_3742_" cx="129.4" cy="38.6" r="10.9"/>
		<circle id="XMLID_3741_" cx="129" cy="39" r="10.9"/>
		<circle id="XMLID_3740_" cx="128.6" cy="39.3" r="10.9"/>
		<circle id="XMLID_3739_" cx="128.3" cy="39.7" r="10.9"/>
		<circle id="XMLID_3738_" cx="127.9" cy="40" r="10.9"/>
		<circle id="XMLID_3737_" cx="127.5" cy="40.4" r="10.9"/>
		<circle id="XMLID_3736_" cx="127.1" cy="40.8" r="10.9"/>
		<circle id="XMLID_3735_" cx="126.8" cy="41.1" r="10.9"/>
		<circle id="XMLID_3734_" cx="126.4" cy="41.5" r="10.9"/>
		<circle id="XMLID_3733_" cx="126" cy="41.8" r="10.9"/>
		<circle id="XMLID_3732_" cx="125.6" cy="42.2" r="10.9"/>
		<circle id="XMLID_3731_" cx="125.3" cy="42.6" r="10.9"/>
		<circle id="XMLID_3730_" cx="124.9" cy="42.9" r="10.9"/>
		<circle id="XMLID_3729_" cx="124.5" cy="43.3" r="10.9"/>
		<circle id="XMLID_3728_" cx="124.1" cy="43.6" r="10.9"/>
		<circle id="XMLID_3727_" cx="123.8" cy="44" r="10.9"/>
		<circle id="XMLID_3726_" cx="123.4" cy="44.4" r="10.9"/>
		<circle id="XMLID_3725_" cx="123" cy="44.7" r="10.9"/>
		<circle id="XMLID_3724_" cx="122.6" cy="45.1" r="10.9"/>
		<circle id="XMLID_3723_" cx="122.3" cy="45.4" r="10.9"/>
		<circle id="XMLID_3722_" cx="121.9" cy="45.8" r="10.9"/>
		<circle id="XMLID_3721_" cx="121.5" cy="46.1" r="10.9"/>
		<circle id="XMLID_3720_" cx="121.1" cy="46.5" r="10.9"/>
		<circle id="XMLID_3719_" cx="120.7" cy="46.9" r="10.9"/>
		<circle id="XMLID_3718_" cx="120.4" cy="47.2" r="10.9"/>
		<circle id="XMLID_3717_" cx="120" cy="47.6" r="10.9"/>
		<circle id="XMLID_3615_" cx="119.6" cy="47.9" r="10.9"/>
		<circle id="XMLID_3715_" cx="120" cy="48.3" r="10.9"/>
		<circle id="XMLID_3714_" cx="120.4" cy="48.7" r="10.9"/>
		<circle id="XMLID_3713_" cx="120.7" cy="49.1" r="10.9"/>
		<circle id="XMLID_3712_" cx="121.1" cy="49.5" r="10.9"/>
		<circle id="XMLID_3711_" cx="121.5" cy="49.9" r="10.9"/>
		<circle id="XMLID_3710_" cx="121.9" cy="50.3" r="10.9"/>
		<circle id="XMLID_3709_" cx="122.3" cy="50.7" r="10.9"/>
		<circle id="XMLID_3708_" cx="122.6" cy="51.1" r="10.9"/>
		<circle id="XMLID_3707_" cx="123" cy="51.5" r="10.9"/>
		<circle id="XMLID_3706_" cx="123.4" cy="51.9" r="10.9"/>
		<circle id="XMLID_3705_" cx="123.8" cy="52.3" r="10.9"/>
		<circle id="XMLID_3704_" cx="124.1" cy="52.7" r="10.9"/>
		<circle id="XMLID_3703_" cx="124.5" cy="53.1" r="10.9"/>
		<circle id="XMLID_3702_" cx="124.9" cy="53.5" r="10.9"/>
		<circle id="XMLID_3701_" cx="125.3" cy="53.9" r="10.9"/>
		<circle id="XMLID_3700_" cx="125.6" cy="54.3" r="10.9"/>
		<circle id="XMLID_3699_" cx="126" cy="54.7" r="10.9"/>
		<circle id="XMLID_3698_" cx="126.4" cy="55.1" r="10.9"/>
		<circle id="XMLID_3697_" cx="126.8" cy="55.5" r="10.9"/>
		<circle id="XMLID_3696_" cx="127.1" cy="55.9" r="10.9"/>
		<circle id="XMLID_3695_" cx="127.5" cy="56.3" r="10.9"/>
		<circle id="XMLID_3694_" cx="127.9" cy="56.7" r="10.9"/>
		<circle id="XMLID_3693_" cx="128.3" cy="57.1" r="10.9"/>
		<circle id="XMLID_3692_" cx="128.6" cy="57.5" r="10.9"/>
		<circle id="XMLID_3691_" cx="129" cy="57.9" r="10.9"/>
		<circle id="XMLID_3690_" cx="129.4" cy="58.3" r="10.9"/>
		<circle id="XMLID_3689_" cx="129.8" cy="58.7" r="10.9"/>
		<circle id="XMLID_3688_" cx="130.2" cy="59" r="10.9"/>
		<circle id="XMLID_3687_" cx="130.5" cy="59.4" r="10.9"/>
		<circle id="XMLID_3686_" cx="130.9" cy="59.8" r="10.9"/>
		<circle id="XMLID_3685_" cx="131.3" cy="60.2" r="10.9"/>
		<circle id="XMLID_3684_" cx="131.7" cy="60.6" r="10.9"/>
		<circle id="XMLID_3683_" cx="132" cy="61" r="10.9"/>
		<circle id="XMLID_3682_" cx="132.4" cy="61.4" r="10.9"/>
		<circle id="XMLID_3681_" cx="132.8" cy="61.8" r="10.9"/>
		<circle id="XMLID_3680_" cx="133.2" cy="62.2" r="10.9"/>
		<circle id="XMLID_3679_" cx="133.5" cy="62.6" r="10.9"/>
		<circle id="XMLID_3678_" cx="133.9" cy="63" r="10.9"/>
		<circle id="XMLID_3677_" cx="134.3" cy="63.4" r="10.9"/>
		<circle id="XMLID_3676_" cx="134.7" cy="63.8" r="10.9"/>
		<circle id="XMLID_3675_" cx="135" cy="64.2" r="10.9"/>
		<circle id="XMLID_3674_" cx="135.4" cy="64.6" r="10.9"/>
		<circle id="XMLID_3673_" cx="135.8" cy="65" r="10.9"/>
		<circle id="XMLID_3672_" cx="136.2" cy="65.4" r="10.9"/>
		<circle id="XMLID_3671_" cx="136.5" cy="65.8" r="10.9"/>
		<circle id="XMLID_3670_" cx="136.9" cy="66.2" r="10.9"/>
		<circle id="XMLID_3669_" cx="137.3" cy="66.6" r="10.9"/>
		<circle id="XMLID_3668_" cx="137.7" cy="67" r="10.9"/>
		<circle id="XMLID_3667_" cx="138.1" cy="67.4" r="10.9"/>
		<circle id="XMLID_3666_" cx="138.4" cy="67.8" r="10.9"/>
		<circle id="XMLID_3665_" cx="138.8" cy="68.2" r="10.9"/>
		<circle id="XMLID_3664_" cx="139.2" cy="68.6" r="10.9"/>
		<circle id="XMLID_3663_" cx="139.6" cy="69" r="10.9"/>
		<circle id="XMLID_3662_" cx="139.9" cy="69.4" r="10.9"/>
		<circle id="XMLID_3661_" cx="140.3" cy="69.8" r="10.9"/>
		<circle id="XMLID_3660_" cx="140.7" cy="70.2" r="10.9"/>
		<circle id="XMLID_3659_" cx="141.1" cy="70.5" r="10.9"/>
		<circle id="XMLID_3658_" cx="141.4" cy="70.9" r="10.9"/>
		<circle id="XMLID_3657_" cx="141.8" cy="71.3" r="10.9"/>
		<circle id="XMLID_3656_" cx="142.2" cy="71.7" r="10.9"/>
		<circle id="XMLID_3655_" cx="142.6" cy="72.1" r="10.9"/>
		<circle id="XMLID_3654_" cx="142.9" cy="72.5" r="10.9"/>
		<circle id="XMLID_3653_" cx="143.3" cy="72.9" r="10.9"/>
		<circle id="XMLID_3652_" cx="143.7" cy="73.3" r="10.9"/>
		<circle id="XMLID_3651_" cx="144.1" cy="73.7" r="10.9"/>
		<circle id="XMLID_3650_" cx="144.4" cy="74.1" r="10.9"/>
		<circle id="XMLID_3649_" cx="144.8" cy="74.5" r="10.9"/>
		<circle id="XMLID_3648_" cx="145.2" cy="74.9" r="10.9"/>
		<circle id="XMLID_3647_" cx="145.6" cy="75.3" r="10.9"/>
		<circle id="XMLID_3646_" cx="146" cy="75.7" r="10.9"/>
		<circle id="XMLID_3645_" cx="146.3" cy="76.1" r="10.9"/>
		<circle id="XMLID_3644_" cx="146.7" cy="76.5" r="10.9"/>
		<circle id="XMLID_3643_" cx="147.1" cy="76.9" r="10.9"/>
		<circle id="XMLID_3642_" cx="147.5" cy="77.3" r="10.9"/>
		<circle id="XMLID_3641_" cx="147.8" cy="77.7" r="10.9"/>
		<circle id="XMLID_3640_" cx="148.2" cy="78.1" r="10.9"/>
		<circle id="XMLID_3639_" cx="148.6" cy="78.5" r="10.9"/>
		<circle id="XMLID_3638_" cx="149" cy="78.9" r="10.9"/>
		<circle id="XMLID_3637_" cx="149.3" cy="79.3" r="10.9"/>
		<circle id="XMLID_3636_" cx="149.7" cy="79.7" r="10.9"/>
		<circle id="XMLID_3635_" cx="150.1" cy="80.1" r="10.9"/>
		<circle id="XMLID_3634_" cx="150.5" cy="80.5" r="10.9"/>
		<circle id="XMLID_3633_" cx="150.8" cy="80.9" r="10.9"/>
		<circle id="XMLID_3632_" cx="151.2" cy="81.3" r="10.9"/>
		<circle id="XMLID_3631_" cx="151.6" cy="81.7" r="10.9"/>
		<circle id="XMLID_3630_" cx="152" cy="82.1" r="10.9"/>
		<circle id="XMLID_3629_" cx="152.4" cy="82.4" r="10.9"/>
		<circle id="XMLID_3628_" cx="152.7" cy="82.8" r="10.9"/>
		<circle id="XMLID_3627_" cx="153.1" cy="83.2" r="10.9"/>
		<circle id="XMLID_3626_" cx="153.5" cy="83.6" r="10.9"/>
		<circle id="XMLID_3625_" cx="153.9" cy="84" r="10.9"/>
		<circle id="XMLID_3624_" cx="154.2" cy="84.4" r="10.9"/>
		<circle id="XMLID_3623_" cx="154.6" cy="84.8" r="10.9"/>
		<circle id="XMLID_3622_" cx="155" cy="85.2" r="10.9"/>
		<circle id="XMLID_3621_" cx="155.4" cy="85.6" r="10.9"/>
		<circle id="XMLID_3620_" cx="155.7" cy="86" r="10.9"/>
		<circle id="XMLID_3619_" cx="156.1" cy="86.4" r="10.9"/>
		<circle id="XMLID_3618_" cx="156.5" cy="86.8" r="10.9"/>
		<circle id="XMLID_3617_" cx="156.9" cy="87.2" r="10.9"/>
		<circle id="XMLID_3616_" cx="157.2" cy="87.6" r="10.9"/>
		<circle id="XMLID_3607_" cx="157.6" cy="88" r="10.9"/>
	</g>
	<g id="XMLID_3398_">
		<ellipse id="XMLID_3506_" cx="12.4" cy="88" rx="10.9" ry="10.9"/>
		<ellipse id="XMLID_3606_" cx="13.1" cy="87.2" rx="10.9" ry="10.9"/>
		<ellipse id="XMLID_3605_" cx="13.8" cy="86.5" rx="10.9" ry="10.9"/>
		<ellipse id="XMLID_3604_" cx="14.5" cy="85.7" rx="10.9" ry="10.9"/>
		<ellipse id="XMLID_3603_" cx="15.3" cy="85" rx="10.9" ry="10.9"/>
		<ellipse id="XMLID_3602_" cx="16" cy="84.2" rx="10.9" ry="10.9"/>
		<ellipse id="XMLID_3601_" cx="16.7" cy="83.5" rx="10.9" ry="10.9"/>
		<ellipse id="XMLID_3600_" cx="17.4" cy="82.7" rx="10.9" ry="10.9"/>
		<ellipse id="XMLID_3599_" cx="18.1" cy="82" rx="10.9" ry="10.9"/>
		<ellipse id="XMLID_3598_" cx="18.9" cy="81.2" rx="10.9" ry="10.9"/>
		<ellipse id="XMLID_3597_" cx="19.6" cy="80.4" rx="10.9" ry="10.9"/>
		<ellipse id="XMLID_3596_" cx="20.3" cy="79.7" rx="10.9" ry="10.9"/>
		<ellipse id="XMLID_3595_" cx="21" cy="78.9" rx="10.9" ry="10.9"/>
		<ellipse id="XMLID_3594_" cx="21.8" cy="78.2" rx="10.9" ry="10.9"/>
		<ellipse id="XMLID_3593_" cx="22.5" cy="77.4" rx="10.9" ry="10.9"/>
		<ellipse id="XMLID_3592_" cx="23.2" cy="76.7" rx="10.9" ry="10.9"/>
		<ellipse id="XMLID_3591_" cx="23.9" cy="75.9" rx="10.9" ry="10.9"/>
		<ellipse id="XMLID_3590_" cx="24.7" cy="75.2" rx="10.9" ry="10.9"/>
		<ellipse id="XMLID_3589_" cx="25.4" cy="74.4" rx="10.9" ry="10.9"/>
		<ellipse id="XMLID_3588_" cx="26.1" cy="73.6" rx="10.9" ry="10.9"/>
		<ellipse id="XMLID_3587_" cx="26.8" cy="72.9" rx="10.9" ry="10.9"/>
		<ellipse id="XMLID_3586_" cx="27.5" cy="72.1" rx="10.9" ry="10.9"/>
		<ellipse id="XMLID_3585_" cx="28.3" cy="71.4" rx="10.9" ry="10.9"/>
		<ellipse id="XMLID_3584_" cx="29" cy="70.6" rx="10.9" ry="10.9"/>
		<ellipse id="XMLID_3583_" cx="29.7" cy="69.9" rx="10.9" ry="10.9"/>
		<ellipse id="XMLID_3582_" cx="30.4" cy="69.1" rx="10.9" ry="10.9"/>
		<ellipse id="XMLID_3581_" cx="31.2" cy="68.4" rx="10.9" ry="10.9"/>
		<ellipse id="XMLID_3580_" cx="31.9" cy="67.6" rx="10.9" ry="10.9"/>
		<ellipse id="XMLID_3579_" cx="32.6" cy="66.8" rx="10.9" ry="10.9"/>
		<ellipse id="XMLID_3578_" cx="33.3" cy="66.1" rx="10.9" ry="10.9"/>
		<ellipse id="XMLID_3577_" cx="34.1" cy="65.3" rx="10.9" ry="10.9"/>
		<ellipse id="XMLID_3576_" cx="34.8" cy="64.6" rx="10.9" ry="10.9"/>
		<ellipse id="XMLID_3575_" cx="35.5" cy="63.8" rx="10.9" ry="10.9"/>
		<ellipse id="XMLID_3574_" cx="36.2" cy="63.1" rx="10.9" ry="10.9"/>
		<ellipse id="XMLID_3573_" cx="36.9" cy="62.3" rx="10.9" ry="10.9"/>
		<ellipse id="XMLID_3572_" cx="37.7" cy="61.6" rx="10.9" ry="10.9"/>
		<ellipse id="XMLID_3571_" cx="38.4" cy="60.8" rx="10.9" ry="10.9"/>
		<ellipse id="XMLID_3570_" cx="39.1" cy="60" rx="10.9" ry="10.9"/>
		<ellipse id="XMLID_3569_" cx="39.8" cy="59.3" rx="10.9" ry="10.9"/>
		<ellipse id="XMLID_3568_" cx="40.6" cy="58.5" rx="10.9" ry="10.9"/>
		<ellipse id="XMLID_3567_" cx="41.3" cy="57.8" rx="10.9" ry="10.9"/>
		<ellipse id="XMLID_3566_" cx="42" cy="57" rx="10.9" ry="10.9"/>
		<ellipse id="XMLID_3565_" cx="42.7" cy="56.3" rx="10.9" ry="10.9"/>
		<ellipse id="XMLID_3564_" cx="43.4" cy="55.5" rx="10.9" ry="10.9"/>
		<ellipse id="XMLID_3563_" cx="44.2" cy="54.8" rx="10.9" ry="10.9"/>
		<ellipse id="XMLID_3562_" cx="44.9" cy="54" rx="10.9" ry="10.9"/>
		<ellipse id="XMLID_3561_" cx="45.6" cy="53.2" rx="10.9" ry="10.9"/>
		<circle id="XMLID_3560_" cx="46.3" cy="52.5" r="10.9"/>
		<circle id="XMLID_3559_" cx="47.1" cy="51.7" r="10.9"/>
		<circle id="XMLID_3558_" cx="47.8" cy="51" r="10.9"/>
		<circle id="XMLID_3557_" cx="48.5" cy="50.2" r="10.9"/>
		<circle id="XMLID_3556_" cx="49.2" cy="49.5" r="10.9"/>
		<circle id="XMLID_3555_" cx="50" cy="48.7" r="10.9"/>
		<circle id="XMLID_3554_" cx="50.7" cy="48" r="10.9"/>
		<circle id="XMLID_3553_" cx="51.4" cy="47.2" r="10.9"/>
		<circle id="XMLID_3552_" cx="52.1" cy="46.4" r="10.9"/>
		<circle id="XMLID_3551_" cx="52.8" cy="45.7" r="10.9"/>
		<circle id="XMLID_3550_" cx="53.6" cy="44.9" r="10.9"/>
		<circle id="XMLID_3549_" cx="54.3" cy="44.2" r="10.9"/>
		<circle id="XMLID_3548_" cx="55" cy="43.4" r="10.9"/>
		<circle id="XMLID_3547_" cx="55.7" cy="42.7" r="10.9"/>
		<circle id="XMLID_3546_" cx="56.5" cy="41.9" r="10.9"/>
		<circle id="XMLID_3545_" cx="57.2" cy="41.2" r="10.9"/>
		<circle id="XMLID_3544_" cx="57.9" cy="40.4" r="10.9"/>
		<circle id="XMLID_3543_" cx="58.6" cy="39.6" r="10.9"/>
		<circle id="XMLID_3542_" cx="59.3" cy="38.9" r="10.9"/>
		<circle id="XMLID_3541_" cx="60.1" cy="38.1" r="10.9"/>
		<circle id="XMLID_3540_" cx="60.8" cy="37.4" r="10.9"/>
		<circle id="XMLID_3539_" cx="61.5" cy="36.6" r="10.9"/>
		<circle id="XMLID_3538_" cx="62.2" cy="35.9" r="10.9"/>
		<circle id="XMLID_3537_" cx="63" cy="35.1" r="10.9"/>
		<circle id="XMLID_3536_" cx="63.7" cy="34.4" r="10.9"/>
		<circle id="XMLID_3535_" cx="64.4" cy="33.6" r="10.9"/>
		<circle id="XMLID_3534_" cx="65.1" cy="32.8" r="10.9"/>
		<circle id="XMLID_3533_" cx="65.9" cy="32.1" r="10.9"/>
		<circle id="XMLID_3532_" cx="66.6" cy="31.3" r="10.9"/>
		<circle id="XMLID_3531_" cx="67.3" cy="30.6" r="10.9"/>
		<circle id="XMLID_3530_" cx="68" cy="29.8" r="10.9"/>
		<circle id="XMLID_3529_" cx="68.7" cy="29.1" r="10.9"/>
		<circle id="XMLID_3528_" cx="69.5" cy="28.3" r="10.9"/>
		<circle id="XMLID_3527_" cx="70.2" cy="27.6" r="10.9"/>
		<circle id="XMLID_3526_" cx="70.9" cy="26.8" r="10.9"/>
		<circle id="XMLID_3525_" cx="71.6" cy="26" r="10.9"/>
		<circle id="XMLID_3524_" cx="72.4" cy="25.3" r="10.9"/>
		<circle id="XMLID_3523_" cx="73.1" cy="24.5" r="10.9"/>
		<circle id="XMLID_3522_" cx="73.8" cy="23.8" r="10.9"/>
		<circle id="XMLID_3521_" cx="74.5" cy="23" r="10.9"/>
		<circle id="XMLID_3520_" cx="75.2" cy="22.3" r="10.9"/>
		<circle id="XMLID_3519_" cx="76" cy="21.5" r="10.9"/>
		<circle id="XMLID_3518_" cx="76.7" cy="20.8" r="10.9"/>
		<circle id="XMLID_3517_" cx="77.4" cy="20" r="10.9"/>
		<circle id="XMLID_3516_" cx="78.1" cy="19.2" r="10.9"/>
		<circle id="XMLID_3515_" cx="78.9" cy="18.5" r="10.9"/>
		<circle id="XMLID_3514_" cx="79.6" cy="17.7" r="10.9"/>
		<circle id="XMLID_3513_" cx="80.3" cy="17" r="10.9"/>
		<circle id="XMLID_3512_" cx="81" cy="16.2" r="10.9"/>
		<circle id="XMLID_3511_" cx="81.8" cy="15.5" r="10.9"/>
		<circle id="XMLID_3510_" cx="82.5" cy="14.7" r="10.9"/>
		<circle id="XMLID_3509_" cx="83.2" cy="14" r="10.9"/>
		<circle id="XMLID_3508_" cx="83.9" cy="13.2" r="10.9"/>
		<circle id="XMLID_3507_" cx="84.6" cy="12.4" r="10.9"/>
		<circle id="XMLID_3405_" cx="85.4" cy="11.7" r="10.9"/>
		<circle id="XMLID_3505_" cx="85.4" cy="12.4" r="10.9"/>
		<circle id="XMLID_3504_" cx="85.4" cy="13.2" r="10.9"/>
		<circle id="XMLID_3503_" cx="85.4" cy="14" r="10.9"/>
		<circle id="XMLID_3502_" cx="85.4" cy="14.7" r="10.9"/>
		<circle id="XMLID_3501_" cx="85.4" cy="15.5" r="10.9"/>
		<circle id="XMLID_3500_" cx="85.4" cy="16.2" r="10.9"/>
		<circle id="XMLID_3499_" cx="85.4" cy="17" r="10.9"/>
		<circle id="XMLID_3498_" cx="85.4" cy="17.7" r="10.9"/>
		<circle id="XMLID_3497_" cx="85.4" cy="18.5" r="10.9"/>
		<circle id="XMLID_3496_" cx="85.4" cy="19.2" r="10.9"/>
		<circle id="XMLID_3495_" cx="85.4" cy="20" r="10.9"/>
		<circle id="XMLID_3494_" cx="85.4" cy="20.8" r="10.9"/>
		<circle id="XMLID_3493_" cx="85.4" cy="21.5" r="10.9"/>
		<circle id="XMLID_3492_" cx="85.4" cy="22.3" r="10.9"/>
		<circle id="XMLID_3491_" cx="85.4" cy="23" r="10.9"/>
		<circle id="XMLID_3490_" cx="85.4" cy="23.8" r="10.9"/>
		<circle id="XMLID_3489_" cx="85.4" cy="24.5" r="10.9"/>
		<circle id="XMLID_3488_" cx="85.4" cy="25.3" r="10.9"/>
		<circle id="XMLID_3487_" cx="85.4" cy="26" r="10.9"/>
		<circle id="XMLID_3486_" cx="85.4" cy="26.8" r="10.9"/>
		<circle id="XMLID_3485_" cx="85.4" cy="27.6" r="10.9"/>
		<circle id="XMLID_3484_" cx="85.4" cy="28.3" r="10.9"/>
		<circle id="XMLID_3483_" cx="85.4" cy="29.1" r="10.9"/>
		<circle id="XMLID_3482_" cx="85.4" cy="29.8" r="10.9"/>
		<circle id="XMLID_3481_" cx="85.4" cy="30.6" r="10.9"/>
		<circle id="XMLID_3480_" cx="85.4" cy="31.3" r="10.9"/>
		<circle id="XMLID_3479_" cx="85.4" cy="32.1" r="10.9"/>
		<circle id="XMLID_3478_" cx="85.4" cy="32.8" r="10.9"/>
		<circle id="XMLID_3477_" cx="85.4" cy="33.6" r="10.9"/>
		<circle id="XMLID_3476_" cx="85.4" cy="34.4" r="10.9"/>
		<circle id="XMLID_3475_" cx="85.4" cy="35.1" r="10.9"/>
		<circle id="XMLID_3474_" cx="85.4" cy="35.9" r="10.9"/>
		<circle id="XMLID_3473_" cx="85.4" cy="36.6" r="10.9"/>
		<circle id="XMLID_3472_" cx="85.4" cy="37.4" r="10.9"/>
		<circle id="XMLID_3471_" cx="85.4" cy="38.1" r="10.9"/>
		<circle id="XMLID_3470_" cx="85.4" cy="38.9" r="10.9"/>
		<circle id="XMLID_3469_" cx="85.4" cy="39.6" r="10.9"/>
		<circle id="XMLID_3468_" cx="85.4" cy="40.4" r="10.9"/>
		<circle id="XMLID_3467_" cx="85.4" cy="41.2" r="10.9"/>
		<circle id="XMLID_3466_" cx="85.4" cy="41.9" r="10.9"/>
		<circle id="XMLID_3465_" cx="85.4" cy="42.7" r="10.9"/>
		<circle id="XMLID_3464_" cx="85.4" cy="43.4" r="10.9"/>
		<circle id="XMLID_3463_" cx="85.4" cy="44.2" r="10.9"/>
		<circle id="XMLID_3462_" cx="85.4" cy="44.9" r="10.9"/>
		<circle id="XMLID_3461_" cx="85.4" cy="45.7" r="10.9"/>
		<circle id="XMLID_3460_" cx="85.4" cy="46.4" r="10.9"/>
		<circle id="XMLID_3459_" cx="85.4" cy="47.2" r="10.9"/>
		<circle id="XMLID_3458_" cx="85.4" cy="48" r="10.9"/>
		<circle id="XMLID_3457_" cx="85.4" cy="48.7" r="10.9"/>
		<circle id="XMLID_3456_" cx="85.4" cy="49.5" r="10.9"/>
		<circle id="XMLID_3455_" cx="85.4" cy="50.2" r="10.9"/>
		<circle id="XMLID_3454_" cx="85.4" cy="51" r="10.9"/>
		<circle id="XMLID_3453_" cx="85.4" cy="51.7" r="10.9"/>
		<circle id="XMLID_3452_" cx="85.4" cy="52.5" r="10.9"/>
		<circle id="XMLID_3451_" cx="85.4" cy="53.2" r="10.9"/>
		<circle id="XMLID_3450_" cx="85.4" cy="54" r="10.9"/>
		<circle id="XMLID_3449_" cx="85.4" cy="54.8" r="10.9"/>
		<circle id="XMLID_3448_" cx="85.4" cy="55.5" r="10.9"/>
		<circle id="XMLID_3447_" cx="85.4" cy="56.3" r="10.9"/>
		<circle id="XMLID_3446_" cx="85.4" cy="57" r="10.9"/>
		<circle id="XMLID_3445_" cx="85.4" cy="57.8" r="10.9"/>
		<circle id="XMLID_3444_" cx="85.4" cy="58.5" r="10.9"/>
		<circle id="XMLID_3443_" cx="85.4" cy="59.3" r="10.9"/>
		<circle id="XMLID_3442_" cx="85.4" cy="60" r="10.9"/>
		<circle id="XMLID_3441_" cx="85.4" cy="60.8" r="10.9"/>
		<circle id="XMLID_3440_" cx="85.4" cy="61.6" r="10.9"/>
		<circle id="XMLID_3439_" cx="85.4" cy="62.3" r="10.9"/>
		<circle id="XMLID_3438_" cx="85.4" cy="63.1" r="10.9"/>
		<circle id="XMLID_3437_" cx="85.4" cy="63.8" r="10.9"/>
		<circle id="XMLID_3436_" cx="85.4" cy="64.6" r="10.9"/>
		<circle id="XMLID_3435_" cx="85.4" cy="65.3" r="10.9"/>
		<circle id="XMLID_3434_" cx="85.4" cy="66.1" r="10.9"/>
		<circle id="XMLID_3433_" cx="85.4" cy="66.8" r="10.9"/>
		<circle id="XMLID_3432_" cx="85.4" cy="67.6" r="10.9"/>
		<circle id="XMLID_3431_" cx="85.4" cy="68.4" r="10.9"/>
		<circle id="XMLID_3430_" cx="85.4" cy="69.1" r="10.9"/>
		<circle id="XMLID_3429_" cx="85.4" cy="69.9" r="10.9"/>
		<circle id="XMLID_3428_" cx="85.4" cy="70.6" r="10.9"/>
		<circle id="XMLID_3427_" cx="85.4" cy="71.4" r="10.9"/>
		<circle id="XMLID_3426_" cx="85.4" cy="72.1" r="10.9"/>
		<circle id="XMLID_3425_" cx="85.4" cy="72.9" r="10.9"/>
		<circle id="XMLID_3424_" cx="85.4" cy="73.6" r="10.9"/>
		<circle id="XMLID_3423_" cx="85.4" cy="74.4" r="10.9"/>
		<circle id="XMLID_3422_" cx="85.4" cy="75.2" r="10.9"/>
		<circle id="XMLID_3421_" cx="85.4" cy="75.9" r="10.9"/>
		<circle id="XMLID_3420_" cx="85.4" cy="76.7" r="10.9"/>
		<circle id="XMLID_3419_" cx="85.4" cy="77.4" r="10.9"/>
		<circle id="XMLID_3418_" cx="85.4" cy="78.2" r="10.9"/>
		<circle id="XMLID_3417_" cx="85.4" cy="78.9" r="10.9"/>
		<circle id="XMLID_3416_" cx="85.4" cy="79.7" r="10.9"/>
		<circle id="XMLID_3415_" cx="85.4" cy="80.4" r="10.9"/>
		<circle id="XMLID_3414_" cx="85.4" cy="81.2" r="10.9"/>
		<circle id="XMLID_3413_" cx="85.4" cy="82" r="10.9"/>
		<circle id="XMLID_3412_" cx="85.4" cy="82.7" r="10.9"/>
		<circle id="XMLID_3411_" cx="85.4" cy="83.5" r="10.9"/>
		<circle id="XMLID_3410_" cx="85.4" cy="84.2" r="10.9"/>
		<circle id="XMLID_3409_" cx="85.4" cy="85" r="10.9"/>
		<circle id="XMLID_3408_" cx="85.4" cy="85.7" r="10.9"/>
		<circle id="XMLID_3407_" cx="85.4" cy="86.5" r="10.9"/>
		<circle id="XMLID_3406_" cx="85.4" cy="87.2" r="10.9"/>
		<circle id="XMLID_3395_" cx="85.4" cy="88" r="10.9"/>
	</g>
</g>
</svg>
