<?xml version="1.0" encoding="utf-8"?>
<!-- Generator: Adobe Illustrator 21.1.0, SVG Export Plug-In . SVG Version: 6.00 Build 0)  -->
<svg version="1.1" id="圖層_1" xmlns="http://www.w3.org/2000/svg" xmlns:xlink="http://www.w3.org/1999/xlink" x="0px" y="0px"
	 viewBox="0 0 89.9 63.4" style="enable-background:new 0 0 89.9 63.4;" xml:space="preserve">
<style type="text/css">
	.st0{fill:#149A3B;}
	.st1{fill:#FFFFFF;}
	.st2{fill:#007FF2;}
	.st3{clip-path:url(#XMLID_27_);fill:none;stroke:#FF6D03;stroke-miterlimit:10;}
	.st4{clip-path:url(#XMLID_28_);fill:#149A3B;}
	.st5{fill:#DCDCDC;}
	.st6{fill:#C6C5C5;}
</style>
<path id="XMLID_300_" class="st0" d="M65.6,15c0,0,9.6-6.6,15.4-8.2c5.8-1.6,8.2-1.1,8.9,2.2s-4.2,6.5-5.5,10.5
	c-1.3,4-2.5,11.1-4.4,11.9L65.6,15z"/>
<path id="XMLID_297_" class="st1" d="M80.1,31C79,25.4,71,14.2,44.9,3.9S8.5,8,4.8,13.4s-7.1,17.3-1.3,29.1s21,14.9,30.7,14.9
	s24-2.7,31.6-5.2C73.5,49.7,82.2,42.7,80.1,31z"/>
<path id="XMLID_283_" class="st2" d="M22.8,10l-1,1.2c-0.1,0.1-0.3,0.2-0.5,0.2h-1.4c-0.5,0-0.8-0.6-0.4-1l1.3-1.3
	c0.1-0.1,0.3-0.2,0.5-0.2l1.1,0.2C22.9,9.1,23.1,9.7,22.8,10z"/>
<path id="XMLID_2_" class="st2" d="M31,33.8l-1,1.7c-0.1,0.2-0.3,0.3-0.6,0.4l-1.9,0.3c-0.7,0.1-1.2-0.7-0.8-1.3l1.4-2
	c0.1-0.2,0.4-0.3,0.6-0.3l1.5,0C30.9,32.5,31.3,33.2,31,33.8z"/>
<path id="XMLID_5_" class="st2" d="M35.3,34.5l-1,1.7c-0.1,0.2-0.3,0.3-0.6,0.4l-1.9,0.3c-0.7,0.1-1.2-0.7-0.8-1.3l1.4-2
	c0.1-0.2,0.4-0.3,0.6-0.3l1.5,0C35.2,33.2,35.6,33.9,35.3,34.5z"/>
<path id="XMLID_8_" class="st2" d="M39.5,35.1l-1,1.7c-0.1,0.2-0.3,0.3-0.6,0.4l-1.9,0.3c-0.7,0.1-1.2-0.7-0.8-1.3l1.4-2
	c0.1-0.2,0.4-0.3,0.6-0.3l1.5,0C39.5,33.9,39.9,34.6,39.5,35.1z"/>
<path id="XMLID_17_" class="st2" d="M43.8,35.8l-1,1.7c-0.1,0.2-0.3,0.3-0.6,0.4l-1.9,0.3c-0.7,0.1-1.2-0.7-0.8-1.3l1.4-2
	c0.1-0.2,0.4-0.3,0.6-0.3l1.5,0C43.8,34.6,44.1,35.3,43.8,35.8z"/>
<path id="XMLID_20_" class="st2" d="M48.1,36.5l-1,1.7c-0.1,0.2-0.3,0.3-0.6,0.4l-1.9,0.3c-0.7,0.1-1.2-0.7-0.8-1.3l1.4-2
	c0.1-0.2,0.4-0.3,0.6-0.3l1.5,0C48,35.3,48.4,35.9,48.1,36.5z"/>
<path id="XMLID_23_" class="st2" d="M52.4,37.2l-1,1.7c-0.1,0.2-0.3,0.3-0.6,0.4l-1.9,0.3c-0.7,0.1-1.2-0.7-0.8-1.3l1.4-2
	c0.1-0.2,0.4-0.3,0.6-0.3l1.5,0C52.3,35.9,52.7,36.6,52.4,37.2z"/>
<path id="XMLID_26_" class="st2" d="M56.6,37.8l-1,1.7c-0.1,0.2-0.3,0.3-0.6,0.4l-1.9,0.3c-0.7,0.1-1.2-0.7-0.8-1.3l1.4-2
	c0.1-0.2,0.4-0.3,0.6-0.3l1.5,0C56.6,36.6,57,37.3,56.6,37.8z"/>
<path id="XMLID_29_" class="st2" d="M60.9,38.5l-1,1.7c-0.1,0.2-0.3,0.3-0.6,0.4l-1.9,0.3c-0.7,0.1-1.2-0.7-0.8-1.3l1.4-2
	c0.1-0.2,0.4-0.3,0.6-0.3l1.5,0C60.9,37.3,61.3,38,60.9,38.5z"/>
<path id="XMLID_32_" class="st2" d="M65.2,39.2l-1,1.7c-0.1,0.2-0.3,0.3-0.6,0.4l-1.9,0.3c-0.7,0.1-1.2-0.7-0.8-1.3l1.4-2
	c0.1-0.2,0.4-0.3,0.6-0.3l1.5,0C65.1,38,65.5,38.7,65.2,39.2z"/>
<path id="XMLID_36_" class="st2" d="M69.5,39.9l-1,1.7c-0.1,0.2-0.3,0.3-0.6,0.4L66,42.3c-0.7,0.1-1.2-0.7-0.8-1.3l1.4-2
	c0.1-0.2,0.4-0.3,0.6-0.3l1.5,0C69.4,38.7,69.8,39.3,69.5,39.9z"/>
<path id="XMLID_280_" class="st2" d="M19.5,9l-1.6,2c-0.2,0.2-0.5,0.3-0.8,0.1l-3-1.8c-0.4-0.2-0.4-0.7-0.1-1L16,6.9
	c0.2-0.1,0.4-0.2,0.6-0.1L19.3,8C19.7,8.2,19.8,8.7,19.5,9z"/>
<path id="XMLID_277_" class="st2" d="M15.7,6.1l-1.8,1.3c-0.4,0.3-1,0-1-0.5V6.3c0-0.2,0.1-0.4,0.2-0.5l1.8-1.4c0.4-0.3,1,0,1,0.5
	v0.8C15.9,5.8,15.8,6,15.7,6.1z"/>
<g id="XMLID_276_">
	<defs>
		<path id="XMLID_142_" d="M80.1,31C79,25.4,71,14.2,44.9,3.9S8.5,8,4.8,13.4s-7.1,17.3-1.3,29.1s21,14.9,30.7,14.9s24-2.7,31.6-5.2
			C73.5,49.7,82.2,42.7,80.1,31z"/>
	</defs>
	<clipPath id="XMLID_27_">
		<use xlink:href="#XMLID_142_"  style="overflow:visible;"/>
	</clipPath>
	<path id="XMLID_35_" class="st3" d="M7.8,7c0,0-8,9.8-2,20.1c8.1,14,44.9,22.8,75,16.1"/>
</g>
<g id="XMLID_279_">
	<defs>
		<path id="XMLID_269_" d="M80.1,31C79,25.4,71,14.2,44.9,3.9S8.5,8,4.8,13.4s-7.1,17.3-1.3,29.1s21,14.9,30.7,14.9s24-2.7,31.6-5.2
			C73.5,49.7,82.2,42.7,80.1,31z"/>
	</defs>
	<clipPath id="XMLID_28_">
		<use xlink:href="#XMLID_269_"  style="overflow:visible;"/>
	</clipPath>
	<path id="XMLID_296_" class="st4" d="M3.3,31.9c3.7,6.6,14.5,12.5,22,14.4c21.1,5.5,33.7,4.1,46.4,3.1c-1.9,1.2-1,6.1-2.9,6.8
		c-7.6,2.5-23.1,6.5-32.8,6.5s-30.4-4.2-36.2-16C-4.7,37.5-1,24.2,1.4,18h1C2.4,18-0.8,24.6,3.3,31.9z"/>
</g>
<path id="XMLID_293_" class="st5" d="M75.6,45.5c0,0-8.8,1.8-10.8,1.8c-2,0-5.2,3.3-3.9,4.3c1.4,1,15,5.1,18,5.6
	c3,0.5,8.6,0.2,7.3-2.6C84.8,51.8,80.9,50.6,75.6,45.5z"/>
<path id="XMLID_290_" class="st6" d="M29,50.6l-4.5,2.7l1.2,0.9c0,0,3.3,0,5.5,3.1l2.4-2.5L29,50.6z"/>
<path id="XMLID_287_" class="st5" d="M25.7,52.8c0,0-3.2-0.7-5.5-0.8c-2.3-0.1-3.1,3.9-3.3,5.3c-0.2,1.4,0.1,4.3,1.8,4.9
	s7,1.7,11,0.8c2-0.6,2.8-4.7,1.8-6.4C30.5,54.9,25.7,52.8,25.7,52.8z"/>
<path id="XMLID_286_" class="st6" d="M21,53.2c-1.2-0.6-1.9,1-2.3,1.8c-0.6,1.4-0.9,3-0.9,4.6c0,0.5,0,1.1,0.4,1.4
	c0.4,0.4,1,0.2,1.4-0.1c0.6-0.5,1-1.2,1.4-1.8c0.6-1,0.9-2.2,1-3.4C21.9,54.9,21.8,53.7,21,53.2z"/>
<path id="XMLID_274_" class="st5" d="M50.9,47.9c0,0-14.2-2.3-17.6-3.4s-6.8,0.9-6.8,2.7c0,1.8,4.1,6.1,8.3,9
	c4.2,2.8,12.6,6.5,16.2,5.8c3.5-0.7,2.6-3.9,2.3-6.8S53.7,48.4,50.9,47.9z"/>
</svg>
