<svg xmlns="http://www.w3.org/2000/svg" xml:space="preserve" viewBox="0 0 155 60"><path d="M148.7 52.8H6.3c-3.2 0-5.7-2.5-5.7-5.7V12.9c0-3.2 2.5-5.7 5.7-5.7h142.4c3.2 0 5.7 2.5 5.7 5.7v34.2c0 3.1-2.5 5.7-5.7 5.7"/><path d="M148.7 8.1c2.6 0 4.8 2.2 4.8 4.8v34.2c0 2.6-2.2 4.8-4.8 4.8H6.3c-2.6 0-4.8-2.2-4.8-4.8V12.9c0-2.6 2.2-4.8 4.8-4.8zm0-.9H6.3C3.1 7.2.6 9.7.6 12.9v34.2c0 3.2 2.5 5.7 5.7 5.7h142.4c3.2 0 5.7-2.5 5.7-5.7V12.9c0-3.1-2.5-5.7-5.7-5.7" style="fill:#a6a6a6"/><path d="M54.6 18.8c0 .9-.2 1.7-.8 2.3-.7.7-1.5 1-2.5 1s-1.8-.3-2.5-1-1-1.5-1-2.5.3-1.8 1-2.5 1.5-1 2.5-1c.5 0 .9.1 1.4.3s.8.5 1 .8l-.6.6c-.5-.6-1-.8-1.8-.8-.7 0-1.4.2-1.8.8-.6.5-.8 1.1-.8 1.9s.2 1.5.8 1.9c.6.5 1.1.8 1.8.8.8 0 1.4-.2 1.9-.8.3-.3.6-.8.6-1.4h-2.5v-.8h3.3zm5.2-2.8h-3.1v2.2h2.8v.8h-2.8v2.2h3.1v.8h-4v-6.8h4zm3.8 6h-.9v-6h-1.9v-.8h4.8v.8h-1.9v6zm5.2 0v-6.8h.9V22zm4.8 0h-.9v-6h-1.9v-.8h4.7v.8h-1.9v6zm10.9-.9c-.7.7-1.5 1-2.5 1s-1.8-.3-2.5-1-1-1.5-1-2.5.3-1.8 1-2.5 1.5-1 2.5-1 1.8.3 2.5 1 1 1.5 1 2.5-.4 1.8-1 2.5zm-4.4-.6c.5.5 1.1.8 1.8.8s1.4-.2 1.8-.8c.5-.5.8-1.1.8-1.9s-.2-1.5-.8-1.9c-.5-.5-1.1-.8-1.8-.8s-1.4.2-1.8.8c-.5.5-.8 1.1-.8 1.9s.3 1.5.8 1.9zm6.6 1.5v-6.8h1l3.3 5.4v-5.4h1V22h-.9l-3.5-5.6V22z" style="fill:#fff;stroke:#fff;stroke-width:.2;stroke-miterlimit:10"/><path d="M78.2 32.1c-2.7 0-4.9 2.1-4.9 4.9 0 2.7 2.2 4.9 4.9 4.9s4.9-2.1 4.9-4.9c0-3-2.2-4.9-4.9-4.9m0 7.7c-1.5 0-2.7-1.3-2.7-3s1.3-3 2.7-3c1.5 0 2.7 1.1 2.7 3 0 1.7-1.2 3-2.7 3m-10.6-7.7c-2.7 0-4.9 2.1-4.9 4.9 0 2.7 2.2 4.9 4.9 4.9s4.9-2.1 4.9-4.9c0-3-2.2-4.9-4.9-4.9m0 7.7c-1.5 0-2.7-1.3-2.7-3s1.3-3 2.7-3 2.7 1.1 2.7 3c0 1.7-1.2 3-2.7 3m-12.7-6.3v2.1h4.9c-.1 1.1-.6 2.1-1.1 2.6-.7.7-1.8 1.5-3.8 1.5-3.1 0-5.4-2.4-5.4-5.5s2.4-5.5 5.4-5.5c1.6 0 2.8.7 3.8 1.5l1.5-1.5c-1.3-1.1-2.8-2.1-5.1-2.1-4.1 0-7.6 3.4-7.6 7.5s3.5 7.5 7.6 7.5c2.3 0 3.9-.7 5.2-2.2 1.4-1.4 1.8-3.3 1.8-4.8 0-.5 0-.9-.1-1.3 0 .2-7.1.2-7.1.2m51.8 1.6c-.5-1.1-1.6-3.1-4.1-3.1S98 34 98 37c0 2.7 2.1 4.9 4.8 4.9 2.2 0 3.5-1.4 4-2.2l-1.6-1.1c-.6.8-1.3 1.4-2.4 1.4s-1.8-.5-2.4-1.5l6.5-2.7c0-.1-.2-.7-.2-.7m-6.6 1.6c0-1.8 1.5-2.8 2.5-2.8.8 0 1.6.5 1.8 1zm-5.4 4.7h2.2V27.2h-2.2zm-3.4-8.3c-.6-.6-1.5-1.1-2.6-1.1-2.4 0-4.7 2.2-4.7 4.9s2.2 4.8 4.7 4.8c1.1 0 2.1-.6 2.5-1.1h.1v.7c0 1.8-1 2.8-2.6 2.8-1.3 0-2.2-.9-2.4-1.7l-1.8.8c.6 1.3 1.9 2.8 4.3 2.8 2.5 0 4.6-1.5 4.6-5v-8.7h-2.1zm-2.5 6.7c-1.5 0-2.7-1.3-2.7-3s1.3-3 2.7-3c1.5 0 2.6 1.3 2.6 3s-1.1 3-2.6 3m27.8-12.6h-5.1v14.2h2.2V36h3c2.4 0 4.7-1.7 4.7-4.4s-2.4-4.4-4.8-4.4m.1 6.8h-3.1v-4.9h3.1c1.6 0 2.5 1.4 2.5 2.4-.1 1.2-1 2.5-2.5 2.5m13.1-2.1c-1.6 0-3.2.7-3.8 2.2l1.9.8c.5-.8 1.1-1 1.9-1 1.1 0 2.2.7 2.3 1.8v.1c-.3-.2-1.3-.6-2.2-.6-2.1 0-4.1 1.1-4.1 3.2 0 1.9 1.7 3.2 3.5 3.2 1.5 0 2.2-.7 2.7-1.4h.1v1.1h2.1v-5.5c-.1-2.4-2-3.9-4.4-3.9m-.2 7.9c-.7 0-1.7-.3-1.7-1.3 0-1.1 1.3-1.5 2.3-1.5.9 0 1.4.2 1.9.5-.3 1.4-1.4 2.3-2.5 2.3m11.9-7.5-2.4 6.2h-.1l-2.5-6.2h-2.3L138 41l-2.2 4.8h2.2l5.8-13.4h-2.3zm-19.1 9.1h2.2V27.2h-2.2z" style="fill:#fff"/><linearGradient id="a" x1="25.395" x2="6.273" y1="786.242" y2="805.364" gradientTransform="translate(0 -769.14)" gradientUnits="userSpaceOnUse"><stop offset="0" style="stop-color:#00a0ff"/><stop offset=".007" style="stop-color:#00a1ff"/><stop offset=".26" style="stop-color:#00beff"/><stop offset=".512" style="stop-color:#00d2ff"/><stop offset=".76" style="stop-color:#00dfff"/><stop offset="1" style="stop-color:#00e3ff"/></linearGradient><path d="M12.4 15.8c-.3.3-.6.9-.6 1.6v25.2c0 .7.2 1.3.6 1.6l.1.1 14.1-14.1V30z" style="fill:url(#a)"/><linearGradient id="b" x1="39.141" x2="11.571" y1="799.197" y2="799.197" gradientTransform="translate(0 -769.14)" gradientUnits="userSpaceOnUse"><stop offset="0" style="stop-color:#ffe000"/><stop offset=".409" style="stop-color:#ffbd00"/><stop offset=".775" style="stop-color:orange"/><stop offset="1" style="stop-color:#ff9c00"/></linearGradient><path d="m31.4 34.9-4.7-4.7v-.3l4.7-4.7.1.1 5.6 3.2c1.6.9 1.6 2.4 0 3.3z" style="fill:url(#b)"/><linearGradient id="c" x1="28.865" x2="2.934" y1="801.743" y2="827.674" gradientTransform="translate(0 -769.14)" gradientUnits="userSpaceOnUse"><stop offset="0" style="stop-color:#ff3a44"/><stop offset="1" style="stop-color:#c31162"/></linearGradient><path d="M31.5 34.8 26.7 30 12.4 44.2c.6.6 1.4.6 2.4.1z" style="fill:url(#c)"/><linearGradient id="d" x1="8.864" x2="20.443" y1="776.593" y2="788.172" gradientTransform="translate(0 -769.14)" gradientUnits="userSpaceOnUse"><stop offset="0" style="stop-color:#32a071"/><stop offset=".069" style="stop-color:#2da771"/><stop offset=".476" style="stop-color:#15cf74"/><stop offset=".801" style="stop-color:#06e775"/><stop offset="1" style="stop-color:#00f076"/></linearGradient><path d="m31.5 25.2-16.6-9.5c-1-.6-1.8-.5-2.4.1L26.7 30z" style="fill:url(#d)"/><path d="M31.4 34.7 14.8 44c-.9.6-1.7.5-2.3 0l-.1.1.1.1c.6.5 1.4.6 2.3 0z" style="opacity:.2"/><path d="M12.4 44c-.3-.3-.5-.9-.5-1.6v.1c0 .7.2 1.3.6 1.6V44zm24.7-12.5-5.7 3.2.1.1 5.6-3.2c.8-.5 1.1-1 1.1-1.6 0 .6-.5 1-1.1 1.5" style="opacity:.12"/><path d="M14.8 15.9 37 28.5c.7.5 1.1.9 1.1 1.5 0-.6-.3-1.1-1.1-1.6L14.8 15.8c-1.6-.9-2.8-.1-2.8 1.7v.1c0-1.8 1.2-2.6 2.8-1.7" style="opacity:.25;fill:#fff"/></svg>