<?xml version="1.0" encoding="utf-8"?>
<!-- Generator: Adobe Illustrator 21.1.0, SVG Export Plug-In . SVG Version: 6.00 Build 0)  -->
<svg version="1.1" id="圖層_1" xmlns="http://www.w3.org/2000/svg" xmlns:xlink="http://www.w3.org/1999/xlink" x="0px" y="0px"
	 viewBox="0 0 75 38.9" style="enable-background:new 0 0 75 38.9;" xml:space="preserve">
<style type="text/css">
	.st0{clip-path:url(#SVGID_2_);fill:#D2111A;}
	.st1{clip-path:url(#SVGID_2_);}
</style>
<g>
	<defs>
		<rect id="SVGID_1_" y="0" width="75" height="38.9"/>
	</defs>
	<clipPath id="SVGID_2_">
		<use xlink:href="#SVGID_1_"  style="overflow:visible;"/>
	</clipPath>
	<path class="st0" d="M0,19.4L19.4,0C8.7,0,0,8.7,0,19.4"/>
	<path class="st0" d="M19.4,38.9L0,19.4C0,30.2,8.7,38.9,19.4,38.9"/>
	<path class="st0" d="M9.7,19.4l9.7,9.7l9.7-9.7L26.7,17l-4.9,4.9L17,17l9.7-9.7l12.1,12.1C38.9,8.7,30.2,0,19.4,0l4.9,4.9L9.7,19.4
		z"/>
	<path class="st0" d="M19.4,38.9c10.7,0,19.4-8.7,19.4-19.4L19.4,38.9z"/>
	<path class="st1" d="M48.9,5.1h0.8c0,0.4,0,0.7,0,0.9c-0.1,0.4-0.3,0.6-0.8,0.6c-0.4,0-0.7-0.2-0.8-0.6c0-0.2,0-0.8,0-1.7
		c0-0.8,0-1.4,0-1.7C48.2,2.2,48.5,2,48.9,2c0.4,0,0.7,0.2,0.8,0.6c0,0.1,0,0.3,0,0.5h1.2c0-0.2,0-0.6,0-0.7
		c-0.1-0.7-0.6-1.5-1.9-1.5c-1.3,0-1.8,0.8-2,1.5c-0.1,0.4-0.1,1-0.1,1.9c0,0.8,0,1.5,0.1,1.8c0.1,0.8,0.7,1.5,1.9,1.5
		c0.6,0,1-0.2,1.3-0.6l0.2,0.4h0.6V5.1v-1h-1.9V5.1z M54.4,0.9c-1.3,0-1.9,0.8-2,1.5c-0.1,0.4-0.1,1-0.1,1.9c0,0.8,0,1.5,0.1,1.8
		c0.1,0.8,0.7,1.5,2,1.5c1.3,0,1.9-0.8,2-1.5c0.1-0.4,0.1-1,0.1-1.8c0-0.8,0-1.5-0.1-1.9C56.3,1.7,55.7,0.9,54.4,0.9 M55.2,6
		c-0.1,0.4-0.4,0.6-0.8,0.6S53.7,6.4,53.6,6c0-0.2,0-0.8,0-1.7c0-0.8,0-1.4,0-1.7C53.7,2.2,54,2,54.4,2s0.8,0.2,0.8,0.6
		c0,0.2,0,0.8,0,1.7C55.3,5.2,55.3,5.8,55.2,6 M60,0.9c-1.3,0-1.9,0.8-2,1.5c-0.1,0.4-0.1,1-0.1,1.9c0,0.8,0,1.5,0.1,1.8
		c0.1,0.8,0.7,1.5,2,1.5c1.3,0,1.9-0.8,2-1.5C62,5.8,62,5.1,62,4.3c0-0.8,0-1.5-0.1-1.9C61.8,1.7,61.3,0.9,60,0.9 M60.8,6
		c-0.1,0.4-0.4,0.6-0.8,0.6S59.2,6.4,59.1,6c0-0.2,0-0.8,0-1.7c0-0.8,0-1.4,0-1.7C59.2,2.2,59.5,2,60,2s0.8,0.2,0.8,0.6
		c0,0.2,0,0.8,0,1.7C60.8,5.2,60.8,5.8,60.8,6 M65.2,1.1h-1.7v6.4h1.7c1,0,1.6-0.3,1.9-1c0.2-0.5,0.3-0.9,0.3-2.2s-0.1-1.7-0.3-2.2
		C66.9,1.5,66.2,1.1,65.2,1.1 M66.2,5.8c-0.1,0.3-0.3,0.6-1,0.6l-0.5,0V2.2l0.5,0c0.7,0,0.9,0.3,1,0.6c0.1,0.3,0.1,0.6,0.1,1.5
		C66.3,5.2,66.3,5.5,66.2,5.8 M48.2,21.3l-1.6,6.4h1.2l0.3-1.2h1.8l0.3,1.2h1.2l-1.6-6.4H48.2z M48.3,25.5l0.6-2.8l0.6,2.8H48.3z
		 M60.4,21.3l-1.6,6.4H60l0.3-1.2h1.8l0.3,1.2h1.2L62,21.3H60.4z M60.6,25.5l0.6-2.8l0.6,2.8H60.6z M68.8,23.3c0-1.3-0.7-2-2-2h-1.1
		v0h-0.9v6.4H66v-2.4h0.8l0.9,2.4H69l-1.1-2.6C68.5,24.8,68.8,24.2,68.8,23.3 M66.8,24.2H66v-1.8l0.8,0c0.6,0,0.9,0.3,0.9,0.9
		C67.6,23.9,67.4,24.2,66.8,24.2 M72,21.3h-1.7v6.4H72c1,0,1.6-0.3,1.9-1c0.2-0.5,0.3-0.9,0.3-2.2c0-1.3-0.1-1.7-0.3-2.2
		C73.7,21.7,73,21.3,72,21.3 M73,26c-0.1,0.3-0.3,0.6-1,0.6l-0.5,0v-4.2l0.5,0c0.7,0,0.9,0.3,1,0.6c0.1,0.3,0.1,0.7,0.1,1.5
		C73.1,25.4,73.1,25.7,73,26 M56.4,25.7l-0.7-4.3h-1.2l-0.7,4.3L53,21.3h-1.1l1.2,6.4h1.3l0.7-4.4l0.6,4.4H57l1.3-6.4h-1.1
		L56.4,25.7z M53.6,14.9h1.9v-1.1h-1.9v-1.5h2.2v-1.1h-3.3v6.4h3.4v-1.1h-2.3V14.9z M62.6,17.6h1.2v-6.4h-1.2V17.6z M73.9,11.2v4
		l-1.6-4h-1.3v6.4H72v-4.4l1.7,4.4H75v-6.4H73.9z M48.8,11.2h-1.7v6.4h1.7c1,0,1.6-0.3,1.9-1c0.2-0.5,0.3-0.9,0.3-2.2
		c0-1.3-0.1-1.7-0.3-2.2C50.4,11.6,49.8,11.2,48.8,11.2 M49.7,15.9c-0.1,0.3-0.3,0.6-1,0.6l-0.5,0v-4.2l0.5,0c0.7,0,0.9,0.3,1,0.6
		c0.1,0.3,0.1,0.6,0.1,1.5C49.8,15.3,49.8,15.6,49.7,15.9 M58.4,12.8c0-0.5,0.3-0.7,0.8-0.7c0.4,0,0.8,0.3,0.8,0.9h1.1
		c0-1.4-1-1.9-1.9-1.9c-1,0-1.9,0.6-1.9,1.8c0,1.8,2.8,1.9,2.8,3.2c0,0.5-0.4,0.8-0.8,0.8c-0.5,0-0.9-0.3-1-1H57
		c0,1.5,1.1,2.1,2.1,2.1c1,0,2-0.5,2-1.8C61.1,14,58.4,13.9,58.4,12.8 M67.4,14.2h1.9v1v2.4h-0.6l-0.2-0.4c-0.3,0.4-0.7,0.6-1.3,0.6
		c-1.2,0-1.7-0.8-1.9-1.5c-0.1-0.4-0.1-1-0.1-1.8c0-0.8,0-1.5,0.1-1.8c0.1-0.8,0.6-1.5,2-1.5c1.3,0,1.8,0.8,1.9,1.5
		c0,0.2,0,0.5,0,0.7h-1.1c0-0.2,0-0.4,0-0.5c-0.1-0.4-0.3-0.6-0.8-0.6c-0.4,0-0.7,0.2-0.8,0.6c0,0.2,0,0.8,0,1.7c0,0.8,0,1.5,0,1.7
		c0.1,0.4,0.4,0.6,0.8,0.6c0.4,0,0.7-0.2,0.8-0.6c0-0.1,0-0.5,0-0.9h-0.8V14.2z M55.6,32.8c-0.1-0.8-0.6-1.5-1.9-1.5
		c-1.3,0-1.7,0.8-1.9,1.5c-0.1,0.4-0.1,1-0.1,1.8c0,0.8,0,1.4,0.1,1.8c0.1,0.8,0.6,1.5,1.9,1.5c1.3,0,1.8-0.8,1.9-1.5
		c0.1-0.4,0.1-1,0.1-1.8C55.7,33.8,55.7,33.2,55.6,32.8 M54.5,36.2c-0.1,0.4-0.3,0.6-0.7,0.6c-0.4,0-0.7-0.2-0.7-0.6
		c0-0.2,0-0.8,0-1.6c0-0.8,0-1.4,0-1.6c0.1-0.4,0.3-0.6,0.7-0.6c0.4,0,0.7,0.2,0.7,0.6c0,0.2,0,0.8,0,1.6
		C54.5,35.4,54.5,36,54.5,36.2 M50.6,33c0-1.3-1-1.8-1.9-1.7c-0.8,0-1.8,0.5-1.8,2H48c0-0.7,0.3-0.9,0.7-1c0.4,0,0.7,0.3,0.7,0.7
		c0,0.6-0.7,1.3-2.5,3.7v1h3.6v-1.1h-2.2c0.8-1,1.5-1.9,1.9-2.5C50.5,33.8,50.6,33.4,50.6,33 M60.6,33c0-1.3-1-1.8-1.9-1.7
		c-0.8,0-1.8,0.5-1.8,2H58c0-0.7,0.3-0.9,0.7-1c0.4,0,0.7,0.3,0.7,0.7c0,0.6-0.7,1.3-2.5,3.7v1h3.6v-1.1h-2.2c0.8-1,1.5-1.9,1.9-2.5
		C60.5,33.8,60.6,33.4,60.6,33 M65.5,35.7h-0.6v-4.3h-0.3h-0.8h-0.3l-2,4.3v1h2.3v1h1.1v-1h0.6V35.7z M62.6,35.7l1.2-2.6v2.6H62.6z"
		/>
</g>
</svg>
