<?xml version="1.0" encoding="utf-8"?>
<!-- Generator: Adobe Illustrator 21.1.0, SVG Export Plug-In . SVG Version: 6.00 Build 0)  -->
<svg version="1.1" id="圖層_1" xmlns="http://www.w3.org/2000/svg" xmlns:xlink="http://www.w3.org/1999/xlink" x="0px" y="0px"
	 viewBox="0 0 216.3 145.8" style="enable-background:new 0 0 216.3 145.8;" xml:space="preserve">
<style type="text/css">
	.st0{fill:#FFFFFF;}
</style>
<g id="XMLID_3397_">
	<g id="XMLID_3608_">
		<circle id="XMLID_6_" class="st0" cx="180.3" cy="13.7" r="10.9"/>
		<circle class="st0" cx="179.9" cy="14.1" r="10.9"/>
		<circle class="st0" cx="179.6" cy="14.4" r="10.9"/>
		<circle class="st0" cx="179.2" cy="14.8" r="10.9"/>
		<circle class="st0" cx="178.8" cy="15.1" r="10.9"/>
		<circle class="st0" cx="178.4" cy="15.5" r="10.9"/>
		<circle class="st0" cx="178.1" cy="15.9" r="10.9"/>
		<circle class="st0" cx="177.7" cy="16.2" r="10.9"/>
		<circle class="st0" cx="177.3" cy="16.6" r="10.9"/>
		<circle class="st0" cx="176.9" cy="16.9" r="10.9"/>
		<circle class="st0" cx="176.6" cy="17.3" r="10.9"/>
		<circle class="st0" cx="176.2" cy="17.7" r="10.9"/>
		<circle class="st0" cx="175.8" cy="18" r="10.9"/>
		<circle class="st0" cx="175.4" cy="18.4" r="10.9"/>
		<circle class="st0" cx="175.1" cy="18.7" r="10.9"/>
		<circle class="st0" cx="174.7" cy="19.1" r="10.9"/>
		<circle class="st0" cx="174.3" cy="19.4" r="10.9"/>
		<circle class="st0" cx="173.9" cy="19.8" r="10.9"/>
		<circle class="st0" cx="173.5" cy="20.2" r="10.9"/>
		<circle class="st0" cx="173.2" cy="20.5" r="10.9"/>
		<circle class="st0" cx="172.8" cy="20.9" r="10.9"/>
		<circle class="st0" cx="172.4" cy="21.2" r="10.9"/>
		<circle class="st0" cx="172" cy="21.6" r="10.9"/>
		<circle class="st0" cx="171.7" cy="22" r="10.9"/>
		<circle class="st0" cx="171.3" cy="22.3" r="10.9"/>
		<circle class="st0" cx="170.9" cy="22.7" r="10.9"/>
		<circle class="st0" cx="170.5" cy="23" r="10.9"/>
		<circle class="st0" cx="170.2" cy="23.4" r="10.9"/>
		<circle class="st0" cx="169.8" cy="23.8" r="10.9"/>
		<circle class="st0" cx="169.4" cy="24.1" r="10.9"/>
		<circle class="st0" cx="169" cy="24.5" r="10.9"/>
		<circle class="st0" cx="168.7" cy="24.8" r="10.9"/>
		<circle class="st0" cx="168.3" cy="25.2" r="10.9"/>
		<circle class="st0" cx="167.9" cy="25.5" r="10.9"/>
		<circle class="st0" cx="167.5" cy="25.9" r="10.9"/>
		<circle class="st0" cx="167.2" cy="26.3" r="10.9"/>
		<circle class="st0" cx="166.8" cy="26.6" r="10.9"/>
		<circle class="st0" cx="166.4" cy="27" r="10.9"/>
		<circle class="st0" cx="166" cy="27.3" r="10.9"/>
		<circle class="st0" cx="165.6" cy="27.7" r="10.9"/>
		<circle class="st0" cx="165.3" cy="28.1" r="10.9"/>
		<circle class="st0" cx="164.9" cy="28.4" r="10.9"/>
		<circle class="st0" cx="164.5" cy="28.8" r="10.9"/>
		<circle class="st0" cx="164.1" cy="29.1" r="10.9"/>
		<circle class="st0" cx="163.8" cy="29.5" r="10.9"/>
		<circle class="st0" cx="163.4" cy="29.9" r="10.9"/>
		<circle class="st0" cx="163" cy="30.2" r="10.9"/>
		<circle class="st0" cx="162.6" cy="30.6" r="10.9"/>
		<circle class="st0" cx="162.3" cy="30.9" r="10.9"/>
		<circle class="st0" cx="161.9" cy="31.3" r="10.9"/>
		<circle class="st0" cx="161.5" cy="31.6" r="10.9"/>
		<circle class="st0" cx="161.1" cy="32" r="10.9"/>
		<circle class="st0" cx="160.8" cy="32.4" r="10.9"/>
		<circle class="st0" cx="160.4" cy="32.7" r="10.9"/>
		<circle class="st0" cx="160" cy="33.1" r="10.9"/>
		<circle class="st0" cx="159.6" cy="33.4" r="10.9"/>
		<circle class="st0" cx="159.3" cy="33.8" r="10.9"/>
		<circle class="st0" cx="158.9" cy="34.2" r="10.9"/>
		<circle class="st0" cx="158.5" cy="34.5" r="10.9"/>
		<circle class="st0" cx="158.1" cy="34.9" r="10.9"/>
		<circle class="st0" cx="157.7" cy="35.2" r="10.9"/>
		<circle class="st0" cx="157.4" cy="35.6" r="10.9"/>
		<circle class="st0" cx="157" cy="36" r="10.9"/>
		<circle class="st0" cx="156.6" cy="36.3" r="10.9"/>
		<circle class="st0" cx="156.2" cy="36.7" r="10.9"/>
		<circle class="st0" cx="155.9" cy="37" r="10.9"/>
		<circle class="st0" cx="155.5" cy="37.4" r="10.9"/>
		<circle class="st0" cx="155.1" cy="37.7" r="10.9"/>
		<circle class="st0" cx="154.7" cy="38.1" r="10.9"/>
		<circle class="st0" cx="154.4" cy="38.5" r="10.9"/>
		<circle class="st0" cx="154" cy="38.8" r="10.9"/>
		<circle class="st0" cx="153.6" cy="39.2" r="10.9"/>
		<circle class="st0" cx="153.2" cy="39.5" r="10.9"/>
		<circle class="st0" cx="152.9" cy="39.9" r="10.9"/>
		<circle class="st0" cx="152.5" cy="40.3" r="10.9"/>
		<circle class="st0" cx="152.1" cy="40.6" r="10.9"/>
		<circle class="st0" cx="151.7" cy="41" r="10.9"/>
		<circle class="st0" cx="151.3" cy="41.3" r="10.9"/>
		<circle class="st0" cx="151" cy="41.7" r="10.9"/>
		<circle class="st0" cx="150.6" cy="42.1" r="10.9"/>
		<circle class="st0" cx="150.2" cy="42.4" r="10.9"/>
		<circle class="st0" cx="149.8" cy="42.8" r="10.9"/>
		<circle class="st0" cx="149.5" cy="43.1" r="10.9"/>
		<circle class="st0" cx="149.1" cy="43.5" r="10.9"/>
		<circle class="st0" cx="148.7" cy="43.9" r="10.9"/>
		<circle class="st0" cx="148.3" cy="44.2" r="10.9"/>
		<circle class="st0" cx="148" cy="44.6" r="10.9"/>
		<circle class="st0" cx="147.6" cy="44.9" r="10.9"/>
		<circle class="st0" cx="147.2" cy="45.3" r="10.9"/>
		<circle class="st0" cx="146.8" cy="45.6" r="10.9"/>
		<circle class="st0" cx="146.5" cy="46" r="10.9"/>
		<circle class="st0" cx="146.1" cy="46.4" r="10.9"/>
		<circle class="st0" cx="145.7" cy="46.7" r="10.9"/>
		<circle class="st0" cx="145.3" cy="47.1" r="10.9"/>
		<circle class="st0" cx="145" cy="47.4" r="10.9"/>
		<circle class="st0" cx="144.6" cy="47.8" r="10.9"/>
		<circle class="st0" cx="144.2" cy="48.2" r="10.9"/>
		<circle class="st0" cx="143.8" cy="48.5" r="10.9"/>
		<circle class="st0" cx="143.4" cy="48.9" r="10.9"/>
		<circle class="st0" cx="143.1" cy="49.2" r="10.9"/>
		<circle class="st0" cx="142.7" cy="49.6" r="10.9"/>
		<circle id="XMLID_5_" class="st0" cx="142.3" cy="50" r="10.9"/>
		<circle class="st0" cx="142.7" cy="50.3" r="10.9"/>
		<circle class="st0" cx="143.1" cy="50.7" r="10.9"/>
		<circle class="st0" cx="143.4" cy="51.1" r="10.9"/>
		<circle class="st0" cx="143.8" cy="51.5" r="10.9"/>
		<circle class="st0" cx="144.2" cy="51.9" r="10.9"/>
		<circle class="st0" cx="144.6" cy="52.3" r="10.9"/>
		<circle class="st0" cx="145" cy="52.7" r="10.9"/>
		<circle class="st0" cx="145.3" cy="53.1" r="10.9"/>
		<circle class="st0" cx="145.7" cy="53.5" r="10.9"/>
		<circle class="st0" cx="146.1" cy="53.9" r="10.9"/>
		<circle class="st0" cx="146.5" cy="54.3" r="10.9"/>
		<circle class="st0" cx="146.8" cy="54.7" r="10.9"/>
		<circle class="st0" cx="147.2" cy="55.1" r="10.9"/>
		<circle class="st0" cx="147.6" cy="55.5" r="10.9"/>
		<circle class="st0" cx="148" cy="55.9" r="10.9"/>
		<circle class="st0" cx="148.3" cy="56.3" r="10.9"/>
		<circle class="st0" cx="148.7" cy="56.7" r="10.9"/>
		<circle class="st0" cx="149.1" cy="57.1" r="10.9"/>
		<circle class="st0" cx="149.5" cy="57.5" r="10.9"/>
		<circle class="st0" cx="149.8" cy="57.9" r="10.9"/>
		<circle class="st0" cx="150.2" cy="58.3" r="10.9"/>
		<circle class="st0" cx="150.6" cy="58.7" r="10.9"/>
		<circle class="st0" cx="151" cy="59.1" r="10.9"/>
		<circle class="st0" cx="151.3" cy="59.5" r="10.9"/>
		<circle class="st0" cx="151.7" cy="59.9" r="10.9"/>
		<circle class="st0" cx="152.1" cy="60.3" r="10.9"/>
		<circle class="st0" cx="152.5" cy="60.7" r="10.9"/>
		<circle class="st0" cx="152.9" cy="61.1" r="10.9"/>
		<circle class="st0" cx="153.2" cy="61.5" r="10.9"/>
		<circle class="st0" cx="153.6" cy="61.9" r="10.9"/>
		<circle class="st0" cx="154" cy="62.2" r="10.9"/>
		<circle class="st0" cx="154.4" cy="62.6" r="10.9"/>
		<circle class="st0" cx="154.7" cy="63" r="10.9"/>
		<circle class="st0" cx="155.1" cy="63.4" r="10.9"/>
		<circle class="st0" cx="155.5" cy="63.8" r="10.9"/>
		<circle class="st0" cx="155.9" cy="64.2" r="10.9"/>
		<circle class="st0" cx="156.2" cy="64.6" r="10.9"/>
		<circle class="st0" cx="156.6" cy="65" r="10.9"/>
		<circle class="st0" cx="157" cy="65.4" r="10.9"/>
		<circle class="st0" cx="157.4" cy="65.8" r="10.9"/>
		<circle class="st0" cx="157.7" cy="66.2" r="10.9"/>
		<circle class="st0" cx="158.1" cy="66.6" r="10.9"/>
		<circle class="st0" cx="158.5" cy="67" r="10.9"/>
		<circle class="st0" cx="158.9" cy="67.4" r="10.9"/>
		<circle class="st0" cx="159.3" cy="67.8" r="10.9"/>
		<circle class="st0" cx="159.6" cy="68.2" r="10.9"/>
		<circle class="st0" cx="160" cy="68.6" r="10.9"/>
		<circle class="st0" cx="160.4" cy="69" r="10.9"/>
		<circle class="st0" cx="160.8" cy="69.4" r="10.9"/>
		<circle class="st0" cx="161.1" cy="69.8" r="10.9"/>
		<circle class="st0" cx="161.5" cy="70.2" r="10.9"/>
		<circle class="st0" cx="161.9" cy="70.6" r="10.9"/>
		<circle class="st0" cx="162.3" cy="71" r="10.9"/>
		<circle class="st0" cx="162.6" cy="71.4" r="10.9"/>
		<circle class="st0" cx="163" cy="71.8" r="10.9"/>
		<circle class="st0" cx="163.4" cy="72.2" r="10.9"/>
		<circle class="st0" cx="163.8" cy="72.6" r="10.9"/>
		<circle class="st0" cx="164.1" cy="73" r="10.9"/>
		<circle class="st0" cx="164.5" cy="73.4" r="10.9"/>
		<circle class="st0" cx="164.9" cy="73.8" r="10.9"/>
		<circle class="st0" cx="165.3" cy="74.1" r="10.9"/>
		<circle class="st0" cx="165.6" cy="74.5" r="10.9"/>
		<circle class="st0" cx="166" cy="74.9" r="10.9"/>
		<circle class="st0" cx="166.4" cy="75.3" r="10.9"/>
		<circle class="st0" cx="166.8" cy="75.7" r="10.9"/>
		<circle class="st0" cx="167.2" cy="76.1" r="10.9"/>
		<circle class="st0" cx="167.5" cy="76.5" r="10.9"/>
		<circle class="st0" cx="167.9" cy="76.9" r="10.9"/>
		<circle class="st0" cx="168.3" cy="77.3" r="10.9"/>
		<circle class="st0" cx="168.7" cy="77.7" r="10.9"/>
		<circle class="st0" cx="169" cy="78.1" r="10.9"/>
		<circle class="st0" cx="169.4" cy="78.5" r="10.9"/>
		<circle class="st0" cx="169.8" cy="78.9" r="10.9"/>
		<circle class="st0" cx="170.2" cy="79.3" r="10.9"/>
		<circle class="st0" cx="170.5" cy="79.7" r="10.9"/>
		<circle class="st0" cx="170.9" cy="80.1" r="10.9"/>
		<circle class="st0" cx="171.3" cy="80.5" r="10.9"/>
		<circle class="st0" cx="171.7" cy="80.9" r="10.9"/>
		<circle class="st0" cx="172" cy="81.3" r="10.9"/>
		<circle class="st0" cx="172.4" cy="81.7" r="10.9"/>
		<circle class="st0" cx="172.8" cy="82.1" r="10.9"/>
		<circle class="st0" cx="173.2" cy="82.5" r="10.9"/>
		<circle class="st0" cx="173.5" cy="82.9" r="10.9"/>
		<circle class="st0" cx="173.9" cy="83.3" r="10.9"/>
		<circle class="st0" cx="174.3" cy="83.7" r="10.9"/>
		<circle class="st0" cx="174.7" cy="84.1" r="10.9"/>
		<circle class="st0" cx="175.1" cy="84.5" r="10.9"/>
		<circle class="st0" cx="175.4" cy="84.9" r="10.9"/>
		<circle class="st0" cx="175.8" cy="85.3" r="10.9"/>
		<circle class="st0" cx="176.2" cy="85.6" r="10.9"/>
		<circle class="st0" cx="176.6" cy="86" r="10.9"/>
		<circle class="st0" cx="176.9" cy="86.4" r="10.9"/>
		<circle class="st0" cx="177.3" cy="86.8" r="10.9"/>
		<circle class="st0" cx="177.7" cy="87.2" r="10.9"/>
		<circle class="st0" cx="178.1" cy="87.6" r="10.9"/>
		<circle class="st0" cx="178.4" cy="88" r="10.9"/>
		<circle class="st0" cx="178.8" cy="88.4" r="10.9"/>
		<circle class="st0" cx="179.2" cy="88.8" r="10.9"/>
		<circle class="st0" cx="179.6" cy="89.2" r="10.9"/>
		<circle class="st0" cx="179.9" cy="89.6" r="10.9"/>
		<circle id="XMLID_4_" class="st0" cx="180.3" cy="90" r="10.9"/>
	</g>
	<g id="XMLID_3398_">
		<ellipse id="XMLID_3_" class="st0" cx="35.1" cy="90" rx="10.9" ry="10.9"/>
		<ellipse class="st0" cx="35.8" cy="89.3" rx="10.9" ry="10.9"/>
		<ellipse class="st0" cx="36.5" cy="88.5" rx="10.9" ry="10.9"/>
		<ellipse class="st0" cx="37.2" cy="87.7" rx="10.9" ry="10.9"/>
		<ellipse class="st0" cx="38" cy="87" rx="10.9" ry="10.9"/>
		<ellipse class="st0" cx="38.7" cy="86.2" rx="10.9" ry="10.9"/>
		<ellipse class="st0" cx="39.4" cy="85.5" rx="10.9" ry="10.9"/>
		<ellipse class="st0" cx="40.1" cy="84.7" rx="10.9" ry="10.9"/>
		<ellipse class="st0" cx="40.9" cy="84" rx="10.9" ry="10.9"/>
		<ellipse class="st0" cx="41.6" cy="83.2" rx="10.9" ry="10.9"/>
		<ellipse class="st0" cx="42.3" cy="82.5" rx="10.9" ry="10.9"/>
		<ellipse class="st0" cx="43" cy="81.7" rx="10.9" ry="10.9"/>
		<ellipse class="st0" cx="43.7" cy="80.9" rx="10.9" ry="10.9"/>
		<ellipse class="st0" cx="44.5" cy="80.2" rx="10.9" ry="10.9"/>
		<ellipse class="st0" cx="45.2" cy="79.4" rx="10.9" ry="10.9"/>
		<ellipse class="st0" cx="45.9" cy="78.7" rx="10.9" ry="10.9"/>
		<ellipse class="st0" cx="46.6" cy="77.9" rx="10.9" ry="10.9"/>
		<ellipse class="st0" cx="47.4" cy="77.2" rx="10.9" ry="10.9"/>
		<ellipse class="st0" cx="48.1" cy="76.4" rx="10.9" ry="10.9"/>
		<ellipse class="st0" cx="48.8" cy="75.7" rx="10.9" ry="10.9"/>
		<ellipse class="st0" cx="49.5" cy="74.9" rx="10.9" ry="10.9"/>
		<ellipse class="st0" cx="50.2" cy="74.1" rx="10.9" ry="10.9"/>
		<ellipse class="st0" cx="51" cy="73.4" rx="10.9" ry="10.9"/>
		<ellipse class="st0" cx="51.7" cy="72.6" rx="10.9" ry="10.9"/>
		<ellipse class="st0" cx="52.4" cy="71.9" rx="10.9" ry="10.9"/>
		<ellipse class="st0" cx="53.1" cy="71.1" rx="10.9" ry="10.9"/>
		<ellipse class="st0" cx="53.9" cy="70.4" rx="10.9" ry="10.9"/>
		<ellipse class="st0" cx="54.6" cy="69.6" rx="10.9" ry="10.9"/>
		<ellipse class="st0" cx="55.3" cy="68.9" rx="10.9" ry="10.9"/>
		<ellipse class="st0" cx="56" cy="68.1" rx="10.9" ry="10.9"/>
		<ellipse class="st0" cx="56.8" cy="67.3" rx="10.9" ry="10.9"/>
		<ellipse class="st0" cx="57.5" cy="66.6" rx="10.9" ry="10.9"/>
		<ellipse class="st0" cx="58.2" cy="65.8" rx="10.9" ry="10.9"/>
		<ellipse class="st0" cx="58.9" cy="65.1" rx="10.9" ry="10.9"/>
		<ellipse class="st0" cx="59.6" cy="64.3" rx="10.9" ry="10.9"/>
		<ellipse class="st0" cx="60.4" cy="63.6" rx="10.9" ry="10.9"/>
		<ellipse class="st0" cx="61.1" cy="62.8" rx="10.9" ry="10.9"/>
		<ellipse class="st0" cx="61.8" cy="62.1" rx="10.9" ry="10.9"/>
		<ellipse class="st0" cx="62.5" cy="61.3" rx="10.9" ry="10.9"/>
		<ellipse class="st0" cx="63.3" cy="60.5" rx="10.9" ry="10.9"/>
		<ellipse class="st0" cx="64" cy="59.8" rx="10.9" ry="10.9"/>
		<ellipse class="st0" cx="64.7" cy="59" rx="10.9" ry="10.9"/>
		<ellipse class="st0" cx="65.4" cy="58.3" rx="10.9" ry="10.9"/>
		<ellipse class="st0" cx="66.1" cy="57.5" rx="10.9" ry="10.9"/>
		<ellipse class="st0" cx="66.9" cy="56.8" rx="10.9" ry="10.9"/>
		<ellipse class="st0" cx="67.6" cy="56" rx="10.9" ry="10.9"/>
		<ellipse class="st0" cx="68.3" cy="55.3" rx="10.9" ry="10.9"/>
		<circle class="st0" cx="69" cy="54.5" r="10.9"/>
		<circle class="st0" cx="69.8" cy="53.7" r="10.9"/>
		<circle class="st0" cx="70.5" cy="53" r="10.9"/>
		<circle class="st0" cx="71.2" cy="52.2" r="10.9"/>
		<circle class="st0" cx="71.9" cy="51.5" r="10.9"/>
		<circle class="st0" cx="72.7" cy="50.7" r="10.9"/>
		<circle class="st0" cx="73.4" cy="50" r="10.9"/>
		<circle class="st0" cx="74.1" cy="49.2" r="10.9"/>
		<circle class="st0" cx="74.8" cy="48.5" r="10.9"/>
		<circle class="st0" cx="75.5" cy="47.7" r="10.9"/>
		<circle class="st0" cx="76.3" cy="46.9" r="10.9"/>
		<circle class="st0" cx="77" cy="46.2" r="10.9"/>
		<circle class="st0" cx="77.7" cy="45.4" r="10.9"/>
		<circle class="st0" cx="78.4" cy="44.7" r="10.9"/>
		<circle class="st0" cx="79.2" cy="43.9" r="10.9"/>
		<circle class="st0" cx="79.9" cy="43.2" r="10.9"/>
		<circle class="st0" cx="80.6" cy="42.4" r="10.9"/>
		<circle class="st0" cx="81.3" cy="41.7" r="10.9"/>
		<circle class="st0" cx="82.1" cy="40.9" r="10.9"/>
		<circle class="st0" cx="82.8" cy="40.1" r="10.9"/>
		<circle class="st0" cx="83.5" cy="39.4" r="10.9"/>
		<circle class="st0" cx="84.2" cy="38.6" r="10.9"/>
		<circle class="st0" cx="84.9" cy="37.9" r="10.9"/>
		<circle class="st0" cx="85.7" cy="37.1" r="10.9"/>
		<circle class="st0" cx="86.4" cy="36.4" r="10.9"/>
		<circle class="st0" cx="87.1" cy="35.6" r="10.9"/>
		<circle class="st0" cx="87.8" cy="34.9" r="10.9"/>
		<circle class="st0" cx="88.6" cy="34.1" r="10.9"/>
		<circle class="st0" cx="89.3" cy="33.3" r="10.9"/>
		<circle class="st0" cx="90" cy="32.6" r="10.9"/>
		<circle class="st0" cx="90.7" cy="31.8" r="10.9"/>
		<circle class="st0" cx="91.4" cy="31.1" r="10.9"/>
		<circle class="st0" cx="92.2" cy="30.3" r="10.9"/>
		<circle class="st0" cx="92.9" cy="29.6" r="10.9"/>
		<circle class="st0" cx="93.6" cy="28.8" r="10.9"/>
		<circle class="st0" cx="94.3" cy="28.1" r="10.9"/>
		<circle class="st0" cx="95.1" cy="27.3" r="10.9"/>
		<circle class="st0" cx="95.8" cy="26.5" r="10.9"/>
		<circle class="st0" cx="96.5" cy="25.8" r="10.9"/>
		<circle class="st0" cx="97.2" cy="25" r="10.9"/>
		<circle class="st0" cx="98" cy="24.3" r="10.9"/>
		<circle class="st0" cx="98.7" cy="23.5" r="10.9"/>
		<circle class="st0" cx="99.4" cy="22.8" r="10.9"/>
		<circle class="st0" cx="100.1" cy="22" r="10.9"/>
		<circle class="st0" cx="100.8" cy="21.3" r="10.9"/>
		<circle class="st0" cx="101.6" cy="20.5" r="10.9"/>
		<circle class="st0" cx="102.3" cy="19.7" r="10.9"/>
		<circle class="st0" cx="103" cy="19" r="10.9"/>
		<circle class="st0" cx="103.7" cy="18.2" r="10.9"/>
		<circle class="st0" cx="104.5" cy="17.5" r="10.9"/>
		<circle class="st0" cx="105.2" cy="16.7" r="10.9"/>
		<circle class="st0" cx="105.9" cy="16" r="10.9"/>
		<circle class="st0" cx="106.6" cy="15.2" r="10.9"/>
		<circle class="st0" cx="107.3" cy="14.5" r="10.9"/>
		<circle id="XMLID_2_" class="st0" cx="108.1" cy="13.7" r="10.9"/>
		<circle class="st0" cx="108.1" cy="14.5" r="10.9"/>
		<circle class="st0" cx="108.1" cy="15.2" r="10.9"/>
		<circle class="st0" cx="108.1" cy="16" r="10.9"/>
		<circle class="st0" cx="108.1" cy="16.7" r="10.9"/>
		<circle class="st0" cx="108.1" cy="17.5" r="10.9"/>
		<circle class="st0" cx="108.1" cy="18.2" r="10.9"/>
		<circle class="st0" cx="108.1" cy="19" r="10.9"/>
		<circle class="st0" cx="108.1" cy="19.7" r="10.9"/>
		<circle class="st0" cx="108.1" cy="20.5" r="10.9"/>
		<circle class="st0" cx="108.1" cy="21.3" r="10.9"/>
		<circle class="st0" cx="108.1" cy="22" r="10.9"/>
		<circle class="st0" cx="108.1" cy="22.8" r="10.9"/>
		<circle class="st0" cx="108.1" cy="23.5" r="10.9"/>
		<circle class="st0" cx="108.1" cy="24.3" r="10.9"/>
		<circle class="st0" cx="108.1" cy="25" r="10.9"/>
		<circle class="st0" cx="108.1" cy="25.8" r="10.9"/>
		<circle class="st0" cx="108.1" cy="26.5" r="10.9"/>
		<circle class="st0" cx="108.1" cy="27.3" r="10.9"/>
		<circle class="st0" cx="108.1" cy="28.1" r="10.9"/>
		<circle class="st0" cx="108.1" cy="28.8" r="10.9"/>
		<circle class="st0" cx="108.1" cy="29.6" r="10.9"/>
		<circle class="st0" cx="108.1" cy="30.3" r="10.9"/>
		<circle class="st0" cx="108.1" cy="31.1" r="10.9"/>
		<circle class="st0" cx="108.1" cy="31.8" r="10.9"/>
		<circle class="st0" cx="108.1" cy="32.6" r="10.9"/>
		<circle class="st0" cx="108.1" cy="33.3" r="10.9"/>
		<circle class="st0" cx="108.1" cy="34.1" r="10.9"/>
		<circle class="st0" cx="108.1" cy="34.9" r="10.9"/>
		<circle class="st0" cx="108.1" cy="35.6" r="10.9"/>
		<circle class="st0" cx="108.1" cy="36.4" r="10.9"/>
		<circle class="st0" cx="108.1" cy="37.1" r="10.9"/>
		<circle class="st0" cx="108.1" cy="37.9" r="10.9"/>
		<circle class="st0" cx="108.1" cy="38.6" r="10.9"/>
		<circle class="st0" cx="108.1" cy="39.4" r="10.9"/>
		<circle class="st0" cx="108.1" cy="40.1" r="10.9"/>
		<circle class="st0" cx="108.1" cy="40.9" r="10.9"/>
		<circle class="st0" cx="108.1" cy="41.7" r="10.9"/>
		<circle class="st0" cx="108.1" cy="42.4" r="10.9"/>
		<circle class="st0" cx="108.1" cy="43.2" r="10.9"/>
		<circle class="st0" cx="108.1" cy="43.9" r="10.9"/>
		<circle class="st0" cx="108.1" cy="44.7" r="10.9"/>
		<circle class="st0" cx="108.1" cy="45.4" r="10.9"/>
		<circle class="st0" cx="108.1" cy="46.2" r="10.9"/>
		<circle class="st0" cx="108.1" cy="46.9" r="10.9"/>
		<circle class="st0" cx="108.1" cy="47.7" r="10.9"/>
		<circle class="st0" cx="108.1" cy="48.5" r="10.9"/>
		<circle class="st0" cx="108.1" cy="49.2" r="10.9"/>
		<circle class="st0" cx="108.1" cy="50" r="10.9"/>
		<circle class="st0" cx="108.1" cy="50.7" r="10.9"/>
		<circle class="st0" cx="108.1" cy="51.5" r="10.9"/>
		<circle class="st0" cx="108.1" cy="52.2" r="10.9"/>
		<circle class="st0" cx="108.1" cy="53" r="10.9"/>
		<circle class="st0" cx="108.1" cy="53.7" r="10.9"/>
		<circle class="st0" cx="108.1" cy="54.5" r="10.9"/>
		<circle class="st0" cx="108.1" cy="55.3" r="10.9"/>
		<circle class="st0" cx="108.1" cy="56" r="10.9"/>
		<circle class="st0" cx="108.1" cy="56.8" r="10.9"/>
		<circle class="st0" cx="108.1" cy="57.5" r="10.9"/>
		<circle class="st0" cx="108.1" cy="58.3" r="10.9"/>
		<circle class="st0" cx="108.1" cy="59" r="10.9"/>
		<circle class="st0" cx="108.1" cy="59.8" r="10.9"/>
		<circle class="st0" cx="108.1" cy="60.5" r="10.9"/>
		<circle class="st0" cx="108.1" cy="61.3" r="10.9"/>
		<circle class="st0" cx="108.1" cy="62.1" r="10.9"/>
		<circle class="st0" cx="108.1" cy="62.8" r="10.9"/>
		<circle class="st0" cx="108.1" cy="63.6" r="10.9"/>
		<circle class="st0" cx="108.1" cy="64.3" r="10.9"/>
		<circle class="st0" cx="108.1" cy="65.1" r="10.9"/>
		<circle class="st0" cx="108.1" cy="65.8" r="10.9"/>
		<circle class="st0" cx="108.1" cy="66.6" r="10.9"/>
		<circle class="st0" cx="108.1" cy="67.3" r="10.9"/>
		<circle class="st0" cx="108.1" cy="68.1" r="10.9"/>
		<circle class="st0" cx="108.1" cy="68.9" r="10.9"/>
		<circle class="st0" cx="108.1" cy="69.6" r="10.9"/>
		<circle class="st0" cx="108.1" cy="70.4" r="10.9"/>
		<circle class="st0" cx="108.1" cy="71.1" r="10.9"/>
		<circle class="st0" cx="108.1" cy="71.9" r="10.9"/>
		<circle class="st0" cx="108.1" cy="72.6" r="10.9"/>
		<circle class="st0" cx="108.1" cy="73.4" r="10.9"/>
		<circle class="st0" cx="108.1" cy="74.1" r="10.9"/>
		<circle class="st0" cx="108.1" cy="74.9" r="10.9"/>
		<circle class="st0" cx="108.1" cy="75.7" r="10.9"/>
		<circle class="st0" cx="108.1" cy="76.4" r="10.9"/>
		<circle class="st0" cx="108.1" cy="77.2" r="10.9"/>
		<circle class="st0" cx="108.1" cy="77.9" r="10.9"/>
		<circle class="st0" cx="108.1" cy="78.7" r="10.9"/>
		<circle class="st0" cx="108.1" cy="79.4" r="10.9"/>
		<circle class="st0" cx="108.1" cy="80.2" r="10.9"/>
		<circle class="st0" cx="108.1" cy="80.9" r="10.9"/>
		<circle class="st0" cx="108.1" cy="81.7" r="10.9"/>
		<circle class="st0" cx="108.1" cy="82.5" r="10.9"/>
		<circle class="st0" cx="108.1" cy="83.2" r="10.9"/>
		<circle class="st0" cx="108.1" cy="84" r="10.9"/>
		<circle class="st0" cx="108.1" cy="84.7" r="10.9"/>
		<circle class="st0" cx="108.1" cy="85.5" r="10.9"/>
		<circle class="st0" cx="108.1" cy="86.2" r="10.9"/>
		<circle class="st0" cx="108.1" cy="87" r="10.9"/>
		<circle class="st0" cx="108.1" cy="87.7" r="10.9"/>
		<circle class="st0" cx="108.1" cy="88.5" r="10.9"/>
		<circle class="st0" cx="108.1" cy="89.3" r="10.9"/>
		<circle id="XMLID_1_" class="st0" cx="108.1" cy="90" r="10.9"/>
	</g>
</g>
<g>
	<path class="st0" d="M2.6,142.6V121h4.5c3.2,0,5.6,0.3,7,0.8c2.1,0.7,3.7,2,4.9,3.8s1.8,4,1.8,6.5c0,2.2-0.5,4.1-1.4,5.7
		c-0.9,1.6-2.1,2.9-3.6,3.6c-1.5,0.8-3.6,1.2-6.3,1.2H2.6z M4.7,140.5h2.5c3,0,5-0.2,6.2-0.6c1.6-0.5,2.9-1.5,3.8-2.8s1.4-3,1.4-5
		c0-2.1-0.5-3.9-1.5-5.3c-1-1.5-2.4-2.5-4.2-3c-1.3-0.4-3.6-0.6-6.7-0.6H4.7V140.5z"/>
	<path class="st0" d="M24.6,121H37v2.1H26.8v6.8h10.1v2.1H26.8v8.5h10.1v2.1H24.6V121z"/>
	<path class="st0" d="M38.2,138.5l1.8-1.1c1.3,2.4,2.8,3.6,4.5,3.6c0.7,0,1.4-0.2,2-0.5s1.1-0.8,1.5-1.4s0.5-1.2,0.5-1.8
		c0-0.7-0.2-1.4-0.7-2.1c-0.7-1-1.9-2.1-3.7-3.5c-1.8-1.4-2.9-2.3-3.4-2.9c-0.8-1-1.1-2.1-1.1-3.3c0-0.9,0.2-1.8,0.7-2.6
		s1.1-1.4,1.9-1.8s1.7-0.7,2.7-0.7c1,0,2,0.3,2.8,0.8s1.8,1.4,2.8,2.8l-1.8,1.3c-0.8-1.1-1.5-1.8-2.1-2.1c-0.6-0.3-1.2-0.5-1.9-0.5
		c-0.9,0-1.6,0.3-2.1,0.8c-0.6,0.5-0.8,1.2-0.8,1.9c0,0.5,0.1,0.9,0.3,1.4s0.6,0.9,1.1,1.4c0.3,0.3,1.2,1,2.8,2.2
		c1.9,1.4,3.1,2.6,3.8,3.7s1,2.2,1,3.2c0,1.6-0.6,2.9-1.8,4.1c-1.2,1.2-2.6,1.7-4.3,1.7c-1.3,0-2.5-0.3-3.6-1S39.1,140.2,38.2,138.5
		z"/>
	<path class="st0" d="M54.7,121h2.2v21.5h-2.2V121z"/>
	<path class="st0" d="M82.3,124.6l-1.7,1.6c-1.2-1.2-2.5-2.1-3.9-2.7c-1.4-0.6-2.8-0.9-4.2-0.9c-1.7,0-3.3,0.4-4.8,1.2
		s-2.7,2-3.6,3.4c-0.8,1.4-1.3,2.9-1.3,4.5c0,1.6,0.4,3.2,1.3,4.6c0.9,1.5,2.1,2.6,3.6,3.4s3.2,1.3,5,1.3c2.2,0,4.1-0.6,5.6-1.9
		s2.4-2.9,2.7-4.9h-6.9v-2.1h9.3c0,3.3-1,6-3,7.9c-2,2-4.6,2.9-7.9,2.9c-4,0-7.1-1.4-9.5-4.1c-1.8-2.1-2.7-4.5-2.7-7.3
		c0-2,0.5-3.9,1.5-5.7s2.4-3.1,4.2-4.1s3.8-1.5,6.1-1.5c1.8,0,3.5,0.3,5.2,1S80.8,123.2,82.3,124.6z"/>
	<path class="st0" d="M87.4,142.6V121h0.5l14.3,16.5V121h2.1v21.5h-0.5l-14.2-16.3v16.3H87.4z"/>
	<path class="st0" d="M115.1,138.5l1.8-1.1c1.3,2.4,2.8,3.6,4.5,3.6c0.7,0,1.4-0.2,2-0.5s1.1-0.8,1.5-1.4s0.5-1.2,0.5-1.8
		c0-0.7-0.2-1.4-0.7-2.1c-0.7-1-1.9-2.1-3.7-3.5c-1.8-1.4-2.9-2.3-3.4-2.9c-0.8-1-1.1-2.1-1.1-3.3c0-0.9,0.2-1.8,0.7-2.6
		s1.1-1.4,1.9-1.8s1.7-0.7,2.7-0.7c1,0,2,0.3,2.8,0.8s1.8,1.4,2.8,2.8l-1.8,1.3c-0.8-1.1-1.5-1.8-2.1-2.1c-0.6-0.3-1.2-0.5-1.9-0.5
		c-0.9,0-1.6,0.3-2.1,0.8c-0.6,0.5-0.8,1.2-0.8,1.9c0,0.5,0.1,0.9,0.3,1.4s0.6,0.9,1.1,1.4c0.3,0.3,1.2,1,2.8,2.2
		c1.9,1.4,3.1,2.6,3.8,3.7s1,2.2,1,3.2c0,1.6-0.6,2.9-1.8,4.1c-1.2,1.2-2.6,1.7-4.3,1.7c-1.3,0-2.5-0.3-3.6-1S116,140.2,115.1,138.5
		z"/>
	<path class="st0" d="M129.8,123.1V121h11.8v2.1h-4.8v19.4h-2.2v-19.4H129.8z"/>
	<path class="st0" d="M144.5,121h2.2v13c0,1.5,0,2.5,0.1,2.9c0.1,0.8,0.4,1.6,0.7,2.1s1,1,1.8,1.4s1.6,0.6,2.4,0.6
		c0.7,0,1.4-0.2,2.1-0.5s1.2-0.7,1.6-1.3s0.8-1.2,1-1.9c0.1-0.5,0.2-1.7,0.2-3.4v-13h2.2v13c0,1.9-0.2,3.5-0.6,4.7s-1.1,2.2-2.3,3.1
		c-1.1,0.9-2.5,1.3-4.1,1.3c-1.7,0-3.2-0.4-4.5-1.2s-2.1-1.9-2.5-3.3c-0.3-0.8-0.4-2.4-0.4-4.5V121z"/>
	<path class="st0" d="M163.8,142.6V121h4.5c3.2,0,5.6,0.3,7,0.8c2.1,0.7,3.7,2,4.9,3.8s1.8,4,1.8,6.5c0,2.2-0.5,4.1-1.4,5.7
		c-0.9,1.6-2.1,2.9-3.6,3.6c-1.5,0.8-3.6,1.2-6.3,1.2H163.8z M165.8,140.5h2.5c3,0,5-0.2,6.2-0.6c1.6-0.5,2.9-1.5,3.8-2.8
		s1.4-3,1.4-5c0-2.1-0.5-3.9-1.5-5.3c-1-1.5-2.4-2.5-4.2-3c-1.3-0.4-3.6-0.6-6.7-0.6h-1.5V140.5z"/>
	<path class="st0" d="M185.5,121h2.2v21.5h-2.2V121z"/>
	<path class="st0" d="M202.5,120.5c3.3,0,6,1.1,8.2,3.3c2.2,2.2,3.3,4.9,3.3,8c0,3.2-1.1,5.8-3.3,8c-2.2,2.2-4.9,3.3-8,3.3
		c-3.2,0-5.9-1.1-8.1-3.3c-2.2-2.2-3.3-4.8-3.3-7.9c0-2.1,0.5-4,1.5-5.8c1-1.8,2.4-3.2,4.1-4.2C198.6,121,200.5,120.5,202.5,120.5z
		 M202.6,122.6c-1.6,0-3.1,0.4-4.5,1.2c-1.4,0.8-2.5,2-3.3,3.4s-1.2,3-1.2,4.7c0,2.6,0.9,4.7,2.7,6.5c1.8,1.8,3.9,2.6,6.4,2.6
		c1.7,0,3.2-0.4,4.6-1.2c1.4-0.8,2.5-1.9,3.3-3.3c0.8-1.4,1.2-3,1.2-4.7c0-1.7-0.4-3.3-1.2-4.6c-0.8-1.4-1.9-2.5-3.4-3.3
		C205.8,123,204.2,122.6,202.6,122.6z"/>
</g>
</svg>
